<?xml version="1.0" encoding="UTF-8" standalone="no"?>
<!-- Created with Inkscape (http://www.inkscape.org/) -->

<svg
   xmlns:dc="http://purl.org/dc/elements/1.1/"
   xmlns:cc="http://creativecommons.org/ns#"
   xmlns:rdf="http://www.w3.org/1999/02/22-rdf-syntax-ns#"
   xmlns:svg="http://www.w3.org/2000/svg"
   xmlns="http://www.w3.org/2000/svg"
   xmlns:xlink="http://www.w3.org/1999/xlink"
   version="1.1"
   width="300"
   height="300"
   id="svg2">
  <defs
     id="defs4">
    <linearGradient
       id="linearGradient3755">
      <stop
         id="stop3757"
         style="stop-color:#778899;stop-opacity:1"
         offset="0" />
      <stop
         id="stop3759"
         style="stop-color:#b0c4de;stop-opacity:1"
         offset="1" />
    </linearGradient>
    <linearGradient
       x1="-103.03556"
       y1="140.3959"
       x2="228.29448"
       y2="140.3959"
       id="linearGradient3761"
       xlink:href="#linearGradient3755"
       gradientUnits="userSpaceOnUse" />
    <linearGradient
       x1="-103.03556"
       y1="140.3959"
       x2="228.29448"
       y2="140.3959"
       id="linearGradient3761-1"
       xlink:href="#linearGradient3755-7"
       gradientUnits="userSpaceOnUse" />
    <linearGradient
       id="linearGradient3755-7">
      <stop
         id="stop3757-4"
         style="stop-color:#778899;stop-opacity:1"
         offset="0" />
      <stop
         id="stop3759-0"
         style="stop-color:#b0c4de;stop-opacity:1"
         offset="1" />
    </linearGradient>
    <linearGradient
       x1="-103.03556"
       y1="140.3959"
       x2="228.29448"
       y2="140.3959"
       id="linearGradient3761-4"
       xlink:href="#linearGradient3755-8"
       gradientUnits="userSpaceOnUse" />
    <linearGradient
       id="linearGradient3755-8">
      <stop
         id="stop3757-8"
         style="stop-color:#778899;stop-opacity:1"
         offset="0" />
      <stop
         id="stop3759-2"
         style="stop-color:#b0c4de;stop-opacity:1"
         offset="1" />
    </linearGradient>
    <linearGradient
       x1="41.396591"
       y1="94.600342"
       x2="71.118309"
       y2="179.146"
       id="linearGradient3833"
       xlink:href="#linearGradient3755-8"
       gradientUnits="userSpaceOnUse" />
    <radialGradient
       cx="62.629459"
       cy="140.3959"
       r="165.66502"
       fx="62.629459"
       fy="140.3959"
       id="radialGradient3835"
       xlink:href="#linearGradient3755-7"
       gradientUnits="userSpaceOnUse"
       gradientTransform="matrix(1,0,0,0.41463415,0,82.182968)" />
  </defs>
  <metadata
     id="metadata7">
    <rdf:RDF>
      <cc:Work
         rdf:about="">
        <dc:format>image/svg+xml</dc:format>
        <dc:type
           rdf:resource="http://purl.org/dc/dcmitype/StillImage" />
        <dc:title></dc:title>
      </cc:Work>
    </rdf:RDF>
  </metadata>
  <g
     transform="translate(0,-752.36218)"
     id="layer1">
    <g
       id="Pfanne">
      <path
         d="m 228.29448,140.3959 a 165.66502,68.690376 0 1 1 -331.33004,0 165.66502,68.690376 0 1 1 331.33004,0 z"
         transform="matrix(0.60362772,0,0,0.727904,97.002222,800.14204)"
         id="path2985"
         style="fill:url(#linearGradient3761);fill-opacity:1;fill-rule:nonzero;stroke:none" />
      <path
         d="m 228.29448,140.3959 a 165.66502,68.690376 0 1 1 -331.33004,0 165.66502,68.690376 0 1 1 331.33004,0 z"
         transform="matrix(0.71338381,0,0,0.86025693,88.128262,760.86984)"
         id="path2985-4"
         style="fill:url(#linearGradient3833);fill-opacity:1;fill-rule:nonzero;stroke:none" />
      <path
         d="m 228.29448,140.3959 a 165.66502,68.690376 0 1 1 -331.33004,0 165.66502,68.690376 0 1 1 331.33004,0 z"
         transform="matrix(0.60362772,0,0,0.727904,95.002222,788.64244)"
         id="path2985-9"
         style="fill:url(#radialGradient3835);fill-opacity:1;fill-rule:nonzero;stroke:none" />
      <path
         d="m 274.10102,1022.2445 c -3.086,-0.194 -26.49439,-18.5138 -53.23904,-48.63038 -24.14304,-27.18698 -61.88086,-31.42898 -58.79508,-31.59295 16.24211,-0.86298 26.77803,-2.99799 35.9598,-5.39325 11.47274,1.69824 13.21386,3.96508 22.73955,11.1595 9.52569,7.19441 90.83287,76.80708 53.33477,74.45708 z"
         id="path3837"
         style="fill:#000000;fill-opacity:1;fill-rule:nonzero;stroke:none" />
      <path
         d="m 331.42858,236.07143 a 5.3571429,16.785715 0 1 1 -10.71428,0 5.3571429,16.785715 0 1 1 10.71428,0 z"
         transform="matrix(0.20436347,-0.31669727,0.28480944,0.36724237,138.18671,1024.3456)"
         id="path3840"
         style="fill:#ffffff;fill-opacity:1;fill-rule:nonzero;stroke:none" />
    </g>
  </g>
</svg>
