<?xml version="1.0" encoding="UTF-8" standalone="no"?>
<!-- Created with Inkscape (http://www.inkscape.org/) -->

<svg
   xmlns:dc="http://purl.org/dc/elements/1.1/"
   xmlns:cc="http://creativecommons.org/ns#"
   xmlns:rdf="http://www.w3.org/1999/02/22-rdf-syntax-ns#"
   xmlns:svg="http://www.w3.org/2000/svg"
   xmlns="http://www.w3.org/2000/svg"
   xmlns:xlink="http://www.w3.org/1999/xlink"
   xmlns:sodipodi="http://sodipodi.sourceforge.net/DTD/sodipodi-0.dtd"
   xmlns:inkscape="http://www.inkscape.org/namespaces/inkscape"
   width="300"
   height="300"
   id="svg2"
   version="1.1"
   inkscape:version="0.48.4 r9939"
   sodipodi:docname="Neues Dokument 1">
  <defs
     id="defs4">
    <inkscape:path-effect
       effect="skeletal"
       id="path-effect3943"
       is_visible="true"
       pattern="m -4,757.36218 c 0,-2.76 2.24,-5 5,-5 2.76,0 5,2.24 5,5 0,2.76 -2.24,5 -5,5 -2.76,0 -5,-2.24 -5,-5 z"
       copytype="single_stretched"
       prop_scale="1"
       scale_y_rel="false"
       spacing="0"
       normal_offset="0"
       tang_offset="0"
       prop_units="false"
       vertical_pattern="false"
       fuse_tolerance="0" />
    <inkscape:path-effect
       effect="skeletal"
       id="path-effect3930"
       is_visible="true"
       pattern="m 30.304577,636.14388 c 0,-2.76 2.24,-5 5,-5 2.76,0 5,2.24 5,5 0,2.76 -2.24,5 -5,5 -2.76,0 -5,-2.24 -5,-5 z"
       copytype="single_stretched"
       prop_scale="1"
       scale_y_rel="false"
       spacing="0"
       normal_offset="0"
       tang_offset="0"
       prop_units="false"
       vertical_pattern="false"
       fuse_tolerance="0" />
    <linearGradient
       id="linearGradient3854">
      <stop
         style="stop-color:#778899;stop-opacity:1;"
         offset="0"
         id="stop3856" />
      <stop
         style="stop-color:#b0c4de;stop-opacity:1;"
         offset="1"
         id="stop3858" />
    </linearGradient>
    <linearGradient
       inkscape:collect="always"
       xlink:href="#linearGradient3812-1"
       id="linearGradient3818-3"
       x1="545.487"
       y1="979.14783"
       x2="338.39557"
       y2="927.63013"
       gradientUnits="userSpaceOnUse" />
    <linearGradient
       id="linearGradient3812-1">
      <stop
         style="stop-color:#b0c4de;stop-opacity:1;"
         offset="0"
         id="stop3814-6" />
      <stop
         style="stop-color:#778899;stop-opacity:1;"
         offset="1"
         id="stop3816-8" />
    </linearGradient>
    <linearGradient
       inkscape:collect="always"
       xlink:href="#linearGradient3854-6"
       id="linearGradient3868-2"
       x1="157.25258"
       y1="226.74269"
       x2="172.91617"
       y2="270.31412"
       gradientUnits="userSpaceOnUse" />
    <linearGradient
       id="linearGradient3854-6">
      <stop
         style="stop-color:#778899;stop-opacity:1;"
         offset="0"
         id="stop3856-0" />
      <stop
         style="stop-color:#b0c4de;stop-opacity:1;"
         offset="1"
         id="stop3858-4" />
    </linearGradient>
    <linearGradient
       inkscape:collect="always"
       xlink:href="#linearGradient3854-2"
       id="linearGradient3868-6"
       x1="157.25258"
       y1="226.74269"
       x2="172.91617"
       y2="270.31412"
       gradientUnits="userSpaceOnUse" />
    <linearGradient
       id="linearGradient3854-2">
      <stop
         style="stop-color:#778899;stop-opacity:1;"
         offset="0"
         id="stop3856-4" />
      <stop
         style="stop-color:#b0c4de;stop-opacity:1;"
         offset="1"
         id="stop3858-5" />
    </linearGradient>
    <inkscape:path-effect
       effect="skeletal"
       id="path-effect3943-8"
       is_visible="true"
       pattern="m -372.37952,734.42436 c 0,-2.76 2.24,-5 5,-5 2.76,0 5,2.24 5,5 0,2.76 -2.24,5 -5,5 -2.76,0 -5,-2.24 -5,-5 z"
       copytype="single_stretched"
       prop_scale="1"
       scale_y_rel="false"
       spacing="0"
       normal_offset="0"
       tang_offset="0"
       prop_units="false"
       vertical_pattern="false"
       fuse_tolerance="0" />
    <linearGradient
       inkscape:collect="always"
       xlink:href="#linearGradient3854-4"
       id="linearGradient3868-21"
       x1="122.96687"
       y1="254.13046"
       x2="120.9978"
       y2="237.32431"
       gradientUnits="userSpaceOnUse" />
    <linearGradient
       id="linearGradient3854-4">
      <stop
         style="stop-color:#778899;stop-opacity:1;"
         offset="0"
         id="stop3856-9" />
      <stop
         style="stop-color:#b0c4de;stop-opacity:1;"
         offset="1"
         id="stop3858-8" />
    </linearGradient>
    <linearGradient
       inkscape:collect="always"
       xlink:href="#linearGradient3812-1"
       id="linearGradient4054"
       gradientUnits="userSpaceOnUse"
       gradientTransform="translate(-315.28571,15)"
       x1="380.83212"
       y1="922.57928"
       x2="454.56311"
       y2="999.35095" />
    <linearGradient
       inkscape:collect="always"
       xlink:href="#linearGradient3812-1"
       id="linearGradient4057"
       gradientUnits="userSpaceOnUse"
       gradientTransform="matrix(1,0,0,-1,-315.28571,1855.0051)"
       x1="485.35852"
       y1="931.96252"
       x2="413.92993"
       y2="931.24823" />
    <linearGradient
       inkscape:collect="always"
       xlink:href="#linearGradient3854"
       id="linearGradient4071"
       gradientUnits="userSpaceOnUse"
       x1="122.96687"
       y1="254.13046"
       x2="120.9978"
       y2="237.32431" />
    <linearGradient
       inkscape:collect="always"
       xlink:href="#linearGradient3854-6"
       id="linearGradient4073"
       gradientUnits="userSpaceOnUse"
       x1="134.07335"
       y1="219.99692"
       x2="127.29591"
       y2="256.54074" />
  </defs>
  <sodipodi:namedview
     id="base"
     pagecolor="#ffffff"
     bordercolor="#666666"
     borderopacity="1.0"
     inkscape:pageopacity="0.0"
     inkscape:pageshadow="2"
     inkscape:zoom="0.98994949"
     inkscape:cx="144.86222"
     inkscape:cy="187.42825"
     inkscape:document-units="px"
     inkscape:current-layer="layer1"
     showgrid="false"
     inkscape:window-width="1029"
     inkscape:window-height="806"
     inkscape:window-x="1618"
     inkscape:window-y="187"
     inkscape:window-maximized="0" />
  <metadata
     id="metadata7">
    <rdf:RDF>
      <cc:Work
         rdf:about="">
        <dc:format>image/svg+xml</dc:format>
        <dc:type
           rdf:resource="http://purl.org/dc/dcmitype/StillImage" />
        <dc:title></dc:title>
      </cc:Work>
    </rdf:RDF>
  </metadata>
  <g
     inkscape:label="Ebene 1"
     inkscape:groupmode="layer"
     id="layer1"
     transform="translate(0,-752.36218)">
    <g
       id="g4059">
      <path
         inkscape:connector-curvature="0"
         id="path2994-8"
         d="m 49.384011,986.20235 0,-100 0.0937,0 c -0.0512,-0.65702 -0.0937,-1.33671 -0.0937,-2 0,-27.61424 44.77152,-50 99.999999,-50 55.22848,0 100,22.38576 100,50 0,0.66329 -0.0426,1.34298 -0.0937,2 l 0.0937,0 0,100 c -0.40667,-27.4401 -45.02394,-49.625 -100,-49.625 -54.976059,0 -99.593329,22.1849 -99.999999,49.625 z"
         style="fill:url(#linearGradient4057);fill-opacity:1;fill-rule:nonzero;stroke:#778899;stroke-width:2;stroke-miterlimit:4;stroke-opacity:1;stroke-dasharray:none" />
      <path
         transform="matrix(0.93114055,0,0,1.7744377,-12.922759,536.35647)"
         d="m 275.77164,217.67256 a 102.02541,26.769043 0 1 1 -204.050822,0 102.02541,26.769043 0 1 1 204.050822,0 z"
         sodipodi:ry="26.769043"
         sodipodi:rx="102.02541"
         sodipodi:cy="217.67256"
         sodipodi:cx="173.74623"
         id="path2985"
         style="fill:#abe6f9;fill-opacity:1;fill-rule:nonzero;stroke:none"
         sodipodi:type="arc" />
      <path
         transform="matrix(2.2667665,0,0,1.1295156,335.36236,808.34308)"
         d="m -81.12754,101.23884 c -0.844576,0.96251 -2.335995,0.30259 -2.906297,-0.60577 -1.051207,-1.674327 -0.0036,-3.802608 1.640152,-4.604762 2.442541,-1.191944 5.296231,0.292206 6.303232,2.674542 1.351437,3.19719 -0.585982,6.79974 -3.708932,8.0017 -3.947133,1.51917 -8.308024,-0.87854 -9.700167,-4.74332 -1.69118,-4.694956 1.170366,-9.818998 5.777712,-11.398637 5.441655,-1.865683 11.331635,1.461731 13.097102,6.812102 2.04176,6.187695 -1.75279,12.845385 -7.846492,14.795565 -6.933324,2.2189 -14.359902,-2.04363 -16.494036,-8.88088 -2.396771,-7.678664 2.334331,-15.874981 9.915271,-18.192501 8.423811,-2.575189 17.390485,2.624913 19.890971,10.949661 2.754015,9.16881 -2.915409,18.90631 -11.984051,21.58944 -9.913699,2.93315 -20.422388,-3.20584 -23.287905,-13.01844 -3.11254,-10.658507 3.496213,-21.938672 14.05283,-24.986375 11.403243,-3.292125 23.455115,3.786547 26.68484,15.08722 3.47187,12.147925 -4.076845,24.971695 -16.121609,28.383305 -12.892572,3.65175 -26.488391,-4.36711 -30.081771,-17.156 -3.83174,-13.637175 4.65736,-28.005178 18.190385,-31.78024 14.381754,-4.011815 29.522051,4.947587 33.47871,19.22478 4.191975,15.12631 -5.237796,31.03899 -20.259169,35.17718 -15.870837,4.3722 -32.555986,-5.52799 -36.875646,-21.29356 -4.55249,-16.61535 5.81817,-34.073042 22.32795,-38.574114 17.359844,-4.732826 35.590136,6.108339 40.272579,23.362338 4.913207,18.104326 -6.398499,37.107276 -24.396728,41.971046 -18.848798,5.09363 -38.624441,-6.68865 -43.669511,-25.43112 -2.2788,-8.46574 -1.39332,-17.622412 2.41539,-25.514278"
         sodipodi:t0="0.034393877"
         sodipodi:argument="-0.091700464"
         sodipodi:radius="37.06723"
         sodipodi:revolution="6.5900002"
         sodipodi:expansion="1"
         sodipodi:cy="100"
         sodipodi:cx="-81.428574"
         id="path2989"
         style="fill:none;stroke:#ffffff;stroke-width:1px;stroke-linecap:butt;stroke-linejoin:miter;stroke-opacity:1"
         sodipodi:type="spiral" />
      <path
         inkscape:connector-curvature="0"
         id="path2994"
         d="m 49.384011,883.8027 0,100 0.0937,0 c -0.0512,0.65702 -0.0937,1.33671 -0.0937,2 0,27.6143 44.77152,50.0001 99.999999,50.0001 55.22848,0 100,-22.3858 100,-50.0001 0,-0.66329 -0.0426,-1.34298 -0.0937,-2 l 0.0937,0 0,-100 c -0.40667,27.4401 -45.02394,49.625 -100,49.625 -54.976059,0 -99.593329,-22.1849 -99.999999,-49.625 z"
         style="fill:url(#linearGradient4054);fill-opacity:1;fill-rule:nonzero;stroke:#778899;stroke-width:2;stroke-miterlimit:4;stroke-opacity:1;stroke-dasharray:none" />
      <path
         inkscape:connector-curvature="0"
         id="path3983"
         d="m 49.472119,894.49085 c -26.76061,2.88617 -46.5624999,13.21982 -46.5624999,25.53125 0,14.5463 27.6473699,26.34375 61.7499999,26.34375 34.102651,0 -34.40625,-14.3912 -34.40625,-28.9375 0,-5.33708 9.2238,-9.94868 19.21875,-13.65625 l 0,-9.28125 z"
         style="fill:#000000;fill-opacity:1;fill-rule:nonzero;stroke:none" />
      <path
         inkscape:connector-curvature="0"
         id="path3983-4"
         d="m 249.75314,894.37696 c 26.76061,2.88614 46.56249,13.21984 46.56249,25.53124 0,14.5463 -27.64737,26.3438 -61.74999,26.3438 -34.10265,0 34.40625,-14.3912 34.40625,-28.9375 0,-5.3371 -9.2238,-9.9487 -19.21875,-13.6563 l 0,-9.28124 z"
         style="fill:#000000;fill-opacity:1;fill-rule:nonzero;stroke:none" />
    </g>
    <g
       id="Topfdeckel">
      <g
         transform="translate(-8.8007894,52)"
         id="g4067">
        <path
           sodipodi:type="arc"
           style="fill:url(#linearGradient4071);fill-opacity:1;fill-rule:nonzero;stroke:#778899;stroke-opacity:1"
           id="path2994-1"
           sodipodi:cx="146.47212"
           sodipodi:cy="242.92638"
           sodipodi:rx="96.974648"
           sodipodi:ry="30.809652"
           d="m 243.44677,242.92638 c 0,17.0157 -43.41703,30.80965 -96.97465,30.80965 -53.557617,0 -96.974645,-13.79395 -96.974645,-30.80965 0,-17.0157 43.417028,-30.80966 96.974645,-30.80966 53.55762,0 96.97465,13.79396 96.97465,30.80966 z"
           transform="matrix(1.0311974,0,0,1.622868,7.3717424,369.80774)" />
        <path
           sodipodi:type="arc"
           style="fill:url(#linearGradient4073);fill-opacity:1;fill-rule:nonzero;stroke:#778899;stroke-opacity:1"
           id="path2994-1-9"
           sodipodi:cx="146.47212"
           sodipodi:cy="242.92638"
           sodipodi:rx="96.974648"
           sodipodi:ry="30.809652"
           d="m 243.44677,242.92638 c 0,17.0157 -43.41703,30.80965 -96.97465,30.80965 -53.557617,0 -96.974645,-13.79395 -96.974645,-30.80965 0,-17.0157 43.417028,-30.80966 96.974645,-30.80966 53.55762,0 96.97465,13.79396 96.97465,30.80966 z"
           transform="matrix(0.89578073,0,0,-1.4097532,28.397182,1104.4096)" />
      </g>
      <path
         transform="translate(25.363868,831.17439)"
         d="m 157.58379,-40.926483 a 33.335033,16.667517 0 1 1 -66.670067,0 33.335033,16.667517 0 1 1 66.670067,0 z"
         sodipodi:ry="16.667517"
         sodipodi:rx="33.335033"
         sodipodi:cy="-40.926483"
         sodipodi:cx="124.24876"
         id="path3906"
         style="fill:#000000;fill-opacity:1;fill-rule:nonzero;stroke:none"
         sodipodi:type="arc" />
      <path
         transform="matrix(0.69696969,0,0,0.69696969,63.015007,830.42978)"
         d="m 157.58379,-40.926483 a 33.335033,16.667517 0 1 1 -66.670067,0 33.335033,16.667517 0 1 1 66.670067,0 z"
         sodipodi:ry="16.667517"
         sodipodi:rx="33.335033"
         sodipodi:cy="-40.926483"
         sodipodi:cx="124.24876"
         id="path3906-5"
         style="fill:#000000;fill-opacity:1;fill-rule:nonzero;stroke:none"
         sodipodi:type="arc" />
    </g>
  </g>
</svg>
