<?xml version="1.0" encoding="UTF-8" standalone="no"?>
<!-- Created with Inkscape (http://www.inkscape.org/) -->

<svg
   xmlns:dc="http://purl.org/dc/elements/1.1/"
   xmlns:cc="http://creativecommons.org/ns#"
   xmlns:rdf="http://www.w3.org/1999/02/22-rdf-syntax-ns#"
   xmlns:svg="http://www.w3.org/2000/svg"
   xmlns="http://www.w3.org/2000/svg"
   xmlns:xlink="http://www.w3.org/1999/xlink"
   version="1.1"
   width="300"
   height="300"
   id="svg2">
  <defs
     id="defs4">
    <linearGradient
       id="linearGradient3889">
      <stop
         id="stop3891"
         style="stop-color:#ffa500;stop-opacity:1"
         offset="0" />
      <stop
         id="stop3893"
         style="stop-color:#ff4500;stop-opacity:1"
         offset="1" />
    </linearGradient>
    <linearGradient
       x1="109.29411"
       y1="297.52878"
       x2="99.987144"
       y2="274.67163"
       id="linearGradient3858"
       xlink:href="#linearGradient3844"
       gradientUnits="userSpaceOnUse"
       gradientTransform="translate(-2.142857,709.50504)" />
    <linearGradient
       id="linearGradient3844">
      <stop
         id="stop3846"
         style="stop-color:#8b4513;stop-opacity:1"
         offset="0" />
      <stop
         id="stop3848"
         style="stop-color:#cd8535;stop-opacity:1"
         offset="1" />
    </linearGradient>
    <linearGradient
       x1="295.49326"
       y1="979.85925"
       x2="285.49326"
       y2="951.28784"
       id="linearGradient3866"
       xlink:href="#linearGradient3860"
       gradientUnits="userSpaceOnUse"
       gradientTransform="translate(-177.14286,-10)" />
    <linearGradient
       id="linearGradient3860">
      <stop
         id="stop3862"
         style="stop-color:#f5deb3;stop-opacity:1"
         offset="0" />
      <stop
         id="stop3864"
         style="stop-color:#fff8dc;stop-opacity:1"
         offset="1" />
    </linearGradient>
    <linearGradient
       x1="323.28571"
       y1="236.78572"
       x2="351.71429"
       y2="236.78572"
       id="linearGradient3876"
       xlink:href="#linearGradient3860"
       gradientUnits="userSpaceOnUse" />
    <linearGradient
       id="linearGradient4377">
      <stop
         id="stop4379"
         style="stop-color:#f5deb3;stop-opacity:1"
         offset="0" />
      <stop
         id="stop4381"
         style="stop-color:#fff8dc;stop-opacity:1"
         offset="1" />
    </linearGradient>
    <linearGradient
       x1="323.28571"
       y1="236.78572"
       x2="351.71429"
       y2="236.78572"
       id="linearGradient3893"
       xlink:href="#linearGradient3860-7"
       gradientUnits="userSpaceOnUse" />
    <linearGradient
       id="linearGradient3860-7">
      <stop
         id="stop3862-7"
         style="stop-color:#f5deb3;stop-opacity:1"
         offset="0" />
      <stop
         id="stop3864-1"
         style="stop-color:#fff8dc;stop-opacity:1"
         offset="1" />
    </linearGradient>
    <linearGradient
       x1="323.28571"
       y1="236.78572"
       x2="351.71429"
       y2="236.78572"
       id="linearGradient3893-4"
       xlink:href="#linearGradient3860-0"
       gradientUnits="userSpaceOnUse" />
    <linearGradient
       id="linearGradient3860-0">
      <stop
         id="stop3862-4"
         style="stop-color:#f5deb3;stop-opacity:1"
         offset="0" />
      <stop
         id="stop3864-9"
         style="stop-color:#fff8dc;stop-opacity:1"
         offset="1" />
    </linearGradient>
    <linearGradient
       x1="323.28571"
       y1="236.78572"
       x2="351.71429"
       y2="236.78572"
       id="linearGradient3893-45"
       xlink:href="#linearGradient3860-3"
       gradientUnits="userSpaceOnUse" />
    <linearGradient
       id="linearGradient3860-3">
      <stop
         id="stop3862-6"
         style="stop-color:#f5deb3;stop-opacity:1"
         offset="0" />
      <stop
         id="stop3864-2"
         style="stop-color:#fff8dc;stop-opacity:1"
         offset="1" />
    </linearGradient>
    <linearGradient
       x1="323.28571"
       y1="236.78572"
       x2="351.71429"
       y2="236.78572"
       id="linearGradient3893-9"
       xlink:href="#linearGradient3860-1"
       gradientUnits="userSpaceOnUse" />
    <linearGradient
       id="linearGradient3860-1">
      <stop
         id="stop3862-2"
         style="stop-color:#f5deb3;stop-opacity:1"
         offset="0" />
      <stop
         id="stop3864-14"
         style="stop-color:#fff8dc;stop-opacity:1"
         offset="1" />
    </linearGradient>
    <linearGradient
       x1="323.28571"
       y1="236.78572"
       x2="351.71429"
       y2="236.78572"
       id="linearGradient3893-3"
       xlink:href="#linearGradient3860-5"
       gradientUnits="userSpaceOnUse" />
    <linearGradient
       id="linearGradient3860-5">
      <stop
         id="stop3862-29"
         style="stop-color:#f5deb3;stop-opacity:1"
         offset="0" />
      <stop
         id="stop3864-98"
         style="stop-color:#fff8dc;stop-opacity:1"
         offset="1" />
    </linearGradient>
    <linearGradient
       x1="323.28571"
       y1="236.78572"
       x2="351.71429"
       y2="236.78572"
       id="linearGradient3893-8"
       xlink:href="#linearGradient3860-8"
       gradientUnits="userSpaceOnUse" />
    <linearGradient
       id="linearGradient3860-8">
      <stop
         id="stop3862-66"
         style="stop-color:#f5deb3;stop-opacity:1"
         offset="0" />
      <stop
         id="stop3864-23"
         style="stop-color:#fff8dc;stop-opacity:1"
         offset="1" />
    </linearGradient>
    <linearGradient
       x1="323.28571"
       y1="236.78572"
       x2="351.71429"
       y2="236.78572"
       id="linearGradient3893-80"
       xlink:href="#linearGradient3860-57"
       gradientUnits="userSpaceOnUse" />
    <linearGradient
       id="linearGradient3860-57">
      <stop
         id="stop3862-8"
         style="stop-color:#f5deb3;stop-opacity:1"
         offset="0" />
      <stop
         id="stop3864-27"
         style="stop-color:#fff8dc;stop-opacity:1"
         offset="1" />
    </linearGradient>
    <linearGradient
       x1="323.28571"
       y1="236.78572"
       x2="351.71429"
       y2="236.78572"
       id="linearGradient3893-5"
       xlink:href="#linearGradient3860-2"
       gradientUnits="userSpaceOnUse" />
    <linearGradient
       id="linearGradient3860-2">
      <stop
         id="stop3862-82"
         style="stop-color:#f5deb3;stop-opacity:1"
         offset="0" />
      <stop
         id="stop3864-0"
         style="stop-color:#fff8dc;stop-opacity:1"
         offset="1" />
    </linearGradient>
    <linearGradient
       x1="323.28571"
       y1="236.78572"
       x2="351.71429"
       y2="236.78572"
       id="linearGradient4427"
       xlink:href="#linearGradient3860-2"
       gradientUnits="userSpaceOnUse" />
    <linearGradient
       x1="68.45903"
       y1="920.47552"
       x2="253.31618"
       y2="920.47552"
       id="linearGradient3895"
       xlink:href="#linearGradient3889"
       gradientUnits="userSpaceOnUse"
       gradientTransform="translate(-0.35714341,-0.35714332)" />
    <linearGradient
       x1="68.45903"
       y1="920.47552"
       x2="253.31618"
       y2="920.47552"
       id="linearGradient3895-3"
       xlink:href="#linearGradient3889-1"
       gradientUnits="userSpaceOnUse"
       gradientTransform="translate(-0.35714341,-0.35714332)" />
    <linearGradient
       id="linearGradient3889-1">
      <stop
         id="stop3891-6"
         style="stop-color:#ffa500;stop-opacity:1"
         offset="0" />
      <stop
         id="stop3893-8"
         style="stop-color:#ff4500;stop-opacity:1"
         offset="1" />
    </linearGradient>
    <linearGradient
       x1="68.45903"
       y1="920.47552"
       x2="253.31618"
       y2="920.47552"
       id="linearGradient3972"
       xlink:href="#linearGradient3889-1"
       gradientUnits="userSpaceOnUse"
       gradientTransform="matrix(0.16406248,0,0,-0.17856857,62.17581,1014.9444)" />
    <linearGradient
       x1="68.45903"
       y1="920.47552"
       x2="253.31618"
       y2="920.47552"
       id="linearGradient4549"
       xlink:href="#linearGradient3889-1"
       gradientUnits="userSpaceOnUse"
       gradientTransform="matrix(0.16406248,0,0,-0.17856857,64.67002,1080.5733)" />
    <linearGradient
       x1="68.45903"
       y1="920.47552"
       x2="253.31618"
       y2="920.47552"
       id="linearGradient4553"
       xlink:href="#linearGradient3889-1"
       gradientUnits="userSpaceOnUse"
       gradientTransform="matrix(0.16406248,0,0,-0.17856857,86.134586,1058.4723)" />
    <linearGradient
       x1="68.45903"
       y1="920.47552"
       x2="253.31618"
       y2="920.47552"
       id="linearGradient4557"
       xlink:href="#linearGradient3889-1"
       gradientUnits="userSpaceOnUse"
       gradientTransform="matrix(0.16406248,0,0,-0.17856857,100.77162,1085.6025)" />
    <linearGradient
       x1="68.45903"
       y1="920.47552"
       x2="253.31618"
       y2="920.47552"
       id="linearGradient4561"
       xlink:href="#linearGradient3889-1"
       gradientUnits="userSpaceOnUse"
       gradientTransform="matrix(0.16406248,0,0,-0.17856857,97.229257,1070.382)" />
    <linearGradient
       x1="68.45903"
       y1="920.47552"
       x2="253.31618"
       y2="920.47552"
       id="linearGradient4565"
       xlink:href="#linearGradient3889-1"
       gradientUnits="userSpaceOnUse"
       gradientTransform="matrix(0.16406248,0,0,-0.17856857,121.58516,1095.2802)" />
    <linearGradient
       x1="68.45903"
       y1="920.47552"
       x2="253.31618"
       y2="920.47552"
       id="linearGradient4569"
       xlink:href="#linearGradient3889-1"
       gradientUnits="userSpaceOnUse"
       gradientTransform="matrix(0.16406248,0,0,-0.17856857,133.02476,1079.1198)" />
    <linearGradient
       x1="68.45903"
       y1="920.47552"
       x2="253.31618"
       y2="920.47552"
       id="linearGradient4573"
       xlink:href="#linearGradient3889-1"
       gradientUnits="userSpaceOnUse"
       gradientTransform="matrix(0.16406248,0,0,-0.17856857,127.03117,1056.2475)" />
    <linearGradient
       x1="68.45903"
       y1="920.47552"
       x2="253.31618"
       y2="920.47552"
       id="linearGradient4577"
       xlink:href="#linearGradient3889-1"
       gradientUnits="userSpaceOnUse"
       gradientTransform="matrix(0.16406248,0,0,-0.17856857,158.30461,1098.9607)" />
    <linearGradient
       x1="68.45903"
       y1="920.47552"
       x2="253.31618"
       y2="920.47552"
       id="linearGradient4581"
       xlink:href="#linearGradient3889-1"
       gradientUnits="userSpaceOnUse"
       gradientTransform="matrix(0.16406248,0,0,-0.17856857,199.02416,1075.3459)" />
    <linearGradient
       x1="68.45903"
       y1="920.47552"
       x2="253.31618"
       y2="920.47552"
       id="linearGradient4585"
       xlink:href="#linearGradient3889-1"
       gradientUnits="userSpaceOnUse"
       gradientTransform="matrix(0.16406248,0,0,-0.17856857,150.30249,1073.1928)" />
    <linearGradient
       x1="68.45903"
       y1="920.47552"
       x2="253.31618"
       y2="920.47552"
       id="linearGradient4589"
       xlink:href="#linearGradient3889-1"
       gradientUnits="userSpaceOnUse"
       gradientTransform="matrix(0.16406248,0,0,-0.17856857,176.6097,1064.9596)" />
    <linearGradient
       x1="68.45903"
       y1="920.47552"
       x2="253.31618"
       y2="920.47552"
       id="linearGradient4593"
       xlink:href="#linearGradient3889-1"
       gradientUnits="userSpaceOnUse"
       gradientTransform="matrix(0.16406248,0,0,-0.17856857,161.26006,1084.6931)" />
    <linearGradient
       x1="68.45903"
       y1="920.47552"
       x2="253.31618"
       y2="920.47552"
       id="linearGradient4597"
       xlink:href="#linearGradient3889-1"
       gradientUnits="userSpaceOnUse"
       gradientTransform="matrix(0.16406248,0,0,-0.17856857,119.14219,1064.3253)" />
    <linearGradient
       x1="68.45903"
       y1="920.47552"
       x2="253.31618"
       y2="920.47552"
       id="linearGradient4601"
       xlink:href="#linearGradient3889-1"
       gradientUnits="userSpaceOnUse"
       gradientTransform="matrix(0.16406248,0,0,-0.17856857,80.759666,1089.5828)" />
    <linearGradient
       x1="68.45903"
       y1="920.47552"
       x2="253.31618"
       y2="920.47552"
       id="linearGradient4605"
       xlink:href="#linearGradient3889-1"
       gradientUnits="userSpaceOnUse"
       gradientTransform="matrix(0.16406248,0,0,-0.17856857,94.722368,1103.2012)" />
    <linearGradient
       x1="68.45903"
       y1="920.47552"
       x2="253.31618"
       y2="920.47552"
       id="linearGradient4609"
       xlink:href="#linearGradient3889-1"
       gradientUnits="userSpaceOnUse"
       gradientTransform="matrix(0.16406248,0,0,-0.17856857,138.6322,1112.8734)" />
    <linearGradient
       x1="68.45903"
       y1="920.47552"
       x2="253.31618"
       y2="920.47552"
       id="linearGradient4613"
       xlink:href="#linearGradient3889-1"
       gradientUnits="userSpaceOnUse"
       gradientTransform="matrix(0.16406248,0,0,-0.17856857,134.38834,1109.987)" />
    <linearGradient
       x1="68.45903"
       y1="920.47552"
       x2="253.31618"
       y2="920.47552"
       id="linearGradient4617"
       xlink:href="#linearGradient3889-1"
       gradientUnits="userSpaceOnUse"
       gradientTransform="matrix(0.16406248,0,0,-0.17856857,185.73069,1088.2767)" />
    <linearGradient
       x1="68.45903"
       y1="920.47552"
       x2="253.31618"
       y2="920.47552"
       id="linearGradient4621"
       xlink:href="#linearGradient3889-1"
       gradientUnits="userSpaceOnUse"
       gradientTransform="matrix(0.16406248,0,0,-0.17856857,155.85138,1058.1887)" />
    <linearGradient
       x1="68.45903"
       y1="920.47552"
       x2="253.31618"
       y2="920.47552"
       id="linearGradient4625"
       xlink:href="#linearGradient3889-1"
       gradientUnits="userSpaceOnUse"
       gradientTransform="matrix(0.16406248,0,0,-0.17856857,63.171645,1068.0552)" />
  </defs>
  <metadata
     id="metadata7">
    <rdf:RDF>
      <cc:Work
         rdf:about="">
        <dc:format>image/svg+xml</dc:format>
        <dc:type
           rdf:resource="http://purl.org/dc/dcmitype/StillImage" />
        <dc:title></dc:title>
      </cc:Work>
    </rdf:RDF>
  </metadata>
  <g
     transform="translate(0,-752.36218)"
     id="layer1">
    <g
       transform="translate(49.315892,-38.722033)"
       id="Brotscheibe01">
      <path
         d="m 110.10714,928.19254 c -42.937343,0.0625 -85.90126,6.01552 -89.312497,17.65625 0,0.7762 0.03136,1.547 0.125,2.3125 l 0,10.40625 c 0,0.11255 0.0075,0.20733 0.03125,0.3125 -0.06205,0.1585 -0.109168,0.33933 -0.15625,0.5 0,22.52126 39.947367,40.78126 89.218747,40.78126 49.27141,0 89.1875,-18.26 89.1875,-40.78126 -0.051,-0.18579 -0.086,-0.37967 -0.15625,-0.5625 0.0673,-0.16881 0.125,-0.36913 0.125,-0.5625 l 0,-10.75 c 0,-0.0715 -0.0215,-0.14999 -0.0312,-0.21875 -0.004,-0.029 0.006,-0.0653 0,-0.0937 0.0314,-0.44467 0.0625,-0.89559 0.0625,-1.34375 -3.26686,-11.8906 -46.1564,-17.71872 -89.09375,-17.65625 z"
         id="path2985-1-7"
         style="fill:url(#linearGradient3858);fill-opacity:1;fill-rule:nonzero;stroke:#8b4513;stroke-width:1.57251489;stroke-linecap:butt;stroke-linejoin:miter;stroke-miterlimit:4;stroke-opacity:1" />
      <path
         d="m 199.707,946.15168 c -6.53372,-23.78119 -171.604997,-23.28146 -178.427477,0 0,22.52138 39.94235,40.77852 89.213727,40.77852 49.27141,0 89.21375,-18.25714 89.21375,-40.77852 z"
         id="path2985-1-7-0"
         style="fill:url(#linearGradient3866);fill-opacity:1;fill-rule:nonzero;stroke:#8b4513;stroke-width:1.57251489;stroke-linecap:butt;stroke-linejoin:miter;stroke-miterlimit:4;stroke-opacity:1" />
      <path
         d="m 350.71429,236.78572 a 13.214286,3.2142856 0 1 1 -26.42858,0 13.214286,3.2142856 0 1 1 26.42858,0 z"
         transform="matrix(0.74324325,0,0,1,-193.88031,710.21932)"
         id="path3868"
         style="fill:url(#linearGradient3876);fill-opacity:1;fill-rule:nonzero;stroke:none" />
      <path
         d="m 350.71429,236.78572 a 13.214286,3.2142856 0 1 1 -26.42858,0 13.214286,3.2142856 0 1 1 26.42858,0 z"
         transform="matrix(0.74324325,0,0,1,-120.75794,736.90787)"
         id="path3868-2"
         style="fill:url(#linearGradient3893);fill-opacity:1;fill-rule:nonzero;stroke:none" />
      <path
         d="m 350.71429,236.78572 a 13.214286,3.2142856 0 1 1 -26.42858,0 13.214286,3.2142856 0 1 1 26.42858,0 z"
         transform="matrix(0.47297298,0,0,1,-32.225557,713.31105)"
         id="path3868-6"
         style="fill:url(#linearGradient3893-4);fill-opacity:1;fill-rule:nonzero;stroke:none" />
      <path
         d="m 350.71429,236.78572 a 13.214286,3.2142856 0 1 1 -26.42858,0 13.214286,3.2142856 0 1 1 26.42858,0 z"
         transform="matrix(0.55405406,0,0,1,-95.20753,731.29074)"
         id="path3868-8"
         style="fill:url(#linearGradient3893-45);fill-opacity:1;fill-rule:nonzero;stroke:none" />
      <path
         d="m 350.71429,236.78572 a 13.214286,3.2142856 0 1 1 -26.42858,0 13.214286,3.2142856 0 1 1 26.42858,0 z"
         transform="matrix(0.74324325,0,0,1,-78.344597,705.21932)"
         id="path3868-82"
         style="fill:url(#linearGradient3893-9);fill-opacity:1;fill-rule:nonzero;stroke:none" />
      <path
         d="m 350.71429,236.78572 a 13.214286,3.2142856 0 1 1 -26.42858,0 13.214286,3.2142856 0 1 1 26.42858,0 z"
         transform="matrix(0.56756758,0,0,1,-91.1067,700.35219)"
         id="path3868-86"
         style="fill:url(#linearGradient3893-3);fill-opacity:1;fill-rule:nonzero;stroke:none" />
      <path
         d="m 350.71429,236.78572 a 13.214286,3.2142856 0 1 1 -26.42858,0 13.214286,3.2142856 0 1 1 26.42858,0 z"
         transform="matrix(0.37837839,0,0,1,-85.311188,721.78077)"
         id="path3868-26"
         style="fill:url(#linearGradient3893-8);fill-opacity:1;fill-rule:nonzero;stroke:none" />
      <path
         d="m 350.71429,236.78572 a 13.214286,3.2142856 0 1 1 -26.42858,0 13.214286,3.2142856 0 1 1 26.42858,0 z"
         transform="matrix(0.36102337,0,0,1,-34.972264,717.39117)"
         id="path3868-20"
         style="fill:url(#linearGradient3893-80);fill-opacity:1;fill-rule:nonzero;stroke:none" />
      <path
         d="m 350.71429,236.78572 a 13.214286,3.2142856 0 1 1 -26.42858,0 13.214286,3.2142856 0 1 1 26.42858,0 z"
         transform="matrix(0.49480033,0,0,1,-4.131135,724.90396)"
         id="path3868-5"
         style="fill:url(#linearGradient4427);fill-opacity:1;fill-rule:nonzero;stroke:none" />
    </g>
    <g
       id="MarmeladeBrotscheibe">
      <path
         d="m 251.95902,912.78931 c 0,1.78196 -4.32216,0.853 -8.30042,5.59646 -1.12125,1.33692 -0.9001,9.20674 -2.15318,10.287 -2.13439,1.84003 -4.24774,0.54091 -6.51582,1.95851 -2.21472,1.38426 -4.4067,-2.67951 -6.40705,-1.11204 -3.36346,2.63558 -0.71551,8.82297 -4.30482,10.76841 -7.57305,4.10467 -12.97492,1.91481 -20.93138,4.42727 -6.46212,2.04059 -7.69558,-3.90737 -13.95099,-2.17491 -13.58404,3.76217 -13.45161,8.46358 -30.29348,8.46358 -9.20957,0 -18.46434,-9.70021 -26.8669,-10.47236 -12.87431,-1.18308 -4.56491,32.68667 -34.47759,-5.86377 -4.87464,-6.28227 -11.756121,-8.82856 -16.271532,-11.16595 -7.091475,-3.67087 -12.383975,-3.22979 -12.383975,-8.56934 0,-5.3338 1.97276,-8.7233 10.085277,-13.01344 6.881521,-3.63915 15.106625,-12.76488 26.49671,-12.91693 15.41682,-0.20581 24.95263,-1.92677 44.66801,-1.92677 8.73964,0 21.66264,2.69469 29.68394,3.39267 7.08719,0.61669 15.26148,-2.44171 21.55778,-1.35155 6.67929,1.15646 16.24569,5.06049 21.78461,6.67207 6.04859,1.75988 10.44754,-0.33986 14.81478,1.86298 5.32362,2.68524 9.27338,5.6609 11.54531,8.83264 1.45393,2.02976 2.22072,4.13982 2.22072,6.30547 z"
         id="path3118"
         style="fill:url(#linearGradient3895);fill-opacity:1;fill-rule:nonzero;stroke:none" />
      <path
         d="m 106.06564,917.51415 c 0,-0.31819 -0.70911,-0.15233 -1.36179,-0.99935 -0.18396,-0.23874 -0.14767,-1.64404 -0.35326,-1.83694 -0.35017,-0.32857 -0.69689,-0.0966 -1.069,-0.34972 -0.36335,-0.24719 -0.72297,0.47847 -1.05116,0.19857 -0.55181,-0.47063 -0.11739,-1.5755 -0.70626,-1.9229 -1.24245,-0.73297 -2.128692,-0.34193 -3.43405,-0.79057 -1.06019,-0.36439 -1.262556,0.69773 -2.288833,0.38836 -2.228631,-0.67179 -2.206905,-1.51132 -4.970024,-1.51132 -1.510945,0 -3.029306,1.73215 -4.407849,1.87003 -2.112191,0.21126 -0.748932,-5.83681 -5.65648,1.04709 -0.799745,1.12181 -1.928738,1.5765 -2.669547,1.99388 -1.163445,0.6555 -2.031746,0.57674 -2.031746,1.53022 0,0.95245 0.323656,1.55771 1.654615,2.3238 1.128999,0.64983 2.47843,2.2794 4.347116,2.30655 2.529321,0.0367 4.09379,0.34406 7.328344,0.34406 1.433847,0 3.554027,-0.48119 4.870022,-0.60582 1.162741,-0.11013 2.503835,0.43601 3.536824,0.24134 1.095819,-0.20651 2.665308,-0.90365 3.574038,-1.19142 0.99234,-0.31426 1.71405,0.0608 2.43055,-0.33267 0.8734,-0.4795 1.52141,-1.01086 1.89415,-1.57724 0.23853,-0.36245 0.36434,-0.73924 0.36434,-1.12595 z"
         id="use4493"
         style="fill:url(#linearGradient4549);fill-opacity:1;fill-rule:nonzero;stroke:none" />
      <path
         d="m 127.53021,895.4131 c 0,-0.31819 -0.70911,-0.15233 -1.36179,-0.99935 -0.18396,-0.23874 -0.14767,-1.64404 -0.35326,-1.83694 -0.35017,-0.32857 -0.69689,-0.0966 -1.069,-0.34972 -0.36335,-0.24719 -0.72297,0.47847 -1.05116,0.19857 -0.55182,-0.47063 -0.11739,-1.5755 -0.70626,-1.9229 -1.24245,-0.73297 -2.1287,-0.34193 -3.43405,-0.79057 -1.06019,-0.36439 -1.26256,0.69773 -2.28884,0.38836 -2.22863,-0.67179 -2.2069,-1.51132 -4.97002,-1.51132 -1.51095,0 -3.02931,1.73215 -4.40785,1.87003 -2.11219,0.21126 -0.74893,-5.83681 -5.65648,1.04709 -0.79975,1.12181 -1.92874,1.5765 -2.669547,1.99388 -1.163445,0.6555 -2.031746,0.57674 -2.031746,1.53022 0,0.95245 0.323656,1.55771 1.654615,2.3238 1.128998,0.64983 2.478428,2.2794 4.347118,2.30655 2.52932,0.0367 4.09379,0.34406 7.32834,0.34406 1.43385,0 3.55403,-0.48119 4.87002,-0.60582 1.16275,-0.11013 2.50384,0.43601 3.53683,0.24134 1.09582,-0.20651 2.66531,-0.90365 3.57403,-1.19142 0.99235,-0.31426 1.71406,0.0608 2.43056,-0.33267 0.8734,-0.4795 1.52141,-1.01086 1.89415,-1.57724 0.23853,-0.36245 0.36434,-0.73924 0.36434,-1.12595 z"
         id="use4495"
         style="fill:url(#linearGradient4553);fill-opacity:1;fill-rule:nonzero;stroke:none" />
      <path
         d="m 142.16724,922.54329 c 0,-0.31819 -0.70911,-0.15233 -1.36179,-0.99935 -0.18396,-0.23874 -0.14767,-1.64404 -0.35326,-1.83694 -0.35017,-0.32857 -0.69689,-0.0966 -1.069,-0.34972 -0.36335,-0.24719 -0.72297,0.47847 -1.05116,0.19857 -0.55182,-0.47063 -0.11739,-1.5755 -0.70626,-1.9229 -1.24245,-0.73297 -2.1287,-0.34193 -3.43405,-0.79057 -1.06019,-0.36439 -1.26256,0.69773 -2.28884,0.38836 -2.22863,-0.67179 -2.2069,-1.51132 -4.97002,-1.51132 -1.51095,0 -3.02931,1.73215 -4.40785,1.87003 -2.11219,0.21126 -0.74893,-5.83681 -5.65648,1.04709 -0.79974,1.12181 -1.92874,1.5765 -2.66955,1.99388 -1.16344,0.6555 -2.03174,0.57674 -2.03174,1.53022 0,0.95245 0.32365,1.55771 1.65461,2.3238 1.129,0.64983 2.47843,2.2794 4.34712,2.30655 2.52932,0.0367 4.09379,0.34406 7.32834,0.34406 1.43385,0 3.55403,-0.48119 4.87003,-0.60582 1.16274,-0.11013 2.50383,0.43601 3.53682,0.24134 1.09582,-0.20651 2.66531,-0.90365 3.57403,-1.19142 0.99235,-0.31426 1.71406,0.0608 2.43056,-0.33267 0.8734,-0.4795 1.52141,-1.01086 1.89415,-1.57724 0.23853,-0.36245 0.36434,-0.73924 0.36434,-1.12595 z"
         id="use4497"
         style="fill:url(#linearGradient4557);fill-opacity:1;fill-rule:nonzero;stroke:none" />
      <path
         d="m 138.62488,907.32285 c 0,-0.31819 -0.70911,-0.15233 -1.36179,-0.99935 -0.18396,-0.23874 -0.14767,-1.64404 -0.35326,-1.83694 -0.35017,-0.32857 -0.69689,-0.0966 -1.069,-0.34972 -0.36335,-0.24719 -0.72297,0.47847 -1.05116,0.19857 -0.55182,-0.47063 -0.11739,-1.5755 -0.70626,-1.9229 -1.24245,-0.73297 -2.1287,-0.34193 -3.43405,-0.79057 -1.06019,-0.36439 -1.26256,0.69773 -2.28884,0.38836 -2.22863,-0.67179 -2.2069,-1.51132 -4.97002,-1.51132 -1.51095,0 -3.02931,1.73215 -4.40785,1.87003 -2.11219,0.21126 -0.74893,-5.83681 -5.65648,1.04709 -0.79974,1.12181 -1.92874,1.5765 -2.66955,1.99388 -1.16344,0.6555 -2.03174,0.57674 -2.03174,1.53022 0,0.95245 0.32365,1.55771 1.65461,2.3238 1.129,0.64983 2.47843,2.2794 4.34712,2.30655 2.52932,0.0367 4.09379,0.34406 7.32834,0.34406 1.43385,0 3.55403,-0.48119 4.87003,-0.60582 1.16274,-0.11013 2.50383,0.43601 3.53682,0.24134 1.09582,-0.20651 2.66531,-0.90365 3.57403,-1.19142 0.99235,-0.31426 1.71406,0.0608 2.43056,-0.33267 0.8734,-0.4795 1.52141,-1.01086 1.89415,-1.57724 0.23853,-0.36245 0.36434,-0.73924 0.36434,-1.12595 z"
         id="use4499"
         style="fill:url(#linearGradient4561);fill-opacity:1;fill-rule:nonzero;stroke:none" />
      <path
         d="m 162.98078,932.22105 c 0,-0.31819 -0.70911,-0.15233 -1.36179,-0.99935 -0.18396,-0.23874 -0.14767,-1.64404 -0.35326,-1.83694 -0.35017,-0.32857 -0.69689,-0.0966 -1.069,-0.34972 -0.36335,-0.24719 -0.72297,0.47847 -1.05115,0.19857 -0.55182,-0.47063 -0.1174,-1.5755 -0.70626,-1.9229 -1.24246,-0.73297 -2.1287,-0.34193 -3.43406,-0.79057 -1.06019,-0.36439 -1.26255,0.69773 -2.28883,0.38836 -2.22863,-0.67179 -2.20691,-1.51132 -4.97002,-1.51132 -1.51095,0 -3.02931,1.73215 -4.40785,1.87003 -2.11219,0.21126 -0.74894,-5.83681 -5.65648,1.04709 -0.79975,1.12181 -1.92874,1.5765 -2.66955,1.99388 -1.16345,0.6555 -2.03175,0.57674 -2.03175,1.53022 0,0.95245 0.32366,1.55771 1.65462,2.3238 1.129,0.64983 2.47843,2.2794 4.34711,2.30655 2.52933,0.0367 4.0938,0.34406 7.32835,0.34406 1.43385,0 3.55403,-0.48119 4.87002,-0.60582 1.16274,-0.11013 2.50384,0.43601 3.53683,0.24134 1.09581,-0.20651 2.6653,-0.90365 3.57403,-1.19142 0.99235,-0.31426 1.71405,0.0608 2.43055,-0.33267 0.8734,-0.4795 1.52141,-1.01086 1.89415,-1.57724 0.23853,-0.36245 0.36434,-0.73924 0.36434,-1.12595 z"
         id="use4507"
         style="fill:url(#linearGradient4565);fill-opacity:1;fill-rule:nonzero;stroke:none" />
      <path
         d="m 174.42038,916.0606 c 0,-0.31819 -0.70911,-0.15233 -1.36179,-0.99936 -0.18396,-0.23874 -0.14767,-1.64404 -0.35326,-1.83694 -0.35017,-0.32857 -0.69689,-0.0966 -1.069,-0.34972 -0.36335,-0.24719 -0.72297,0.47847 -1.05116,0.19857 -0.55181,-0.47063 -0.11739,-1.5755 -0.70626,-1.9229 -1.24245,-0.73297 -2.12869,-0.34193 -3.43405,-0.79057 -1.06019,-0.36439 -1.26256,0.69773 -2.28883,0.38836 -2.22864,-0.67179 -2.20691,-1.51132 -4.97003,-1.51132 -1.51094,0 -3.0293,1.73216 -4.40785,1.87004 -2.11219,0.21126 -0.74893,-5.83682 -5.65648,1.04709 -0.79974,1.12181 -1.92874,1.5765 -2.66954,1.99388 -1.16345,0.65549 -2.03175,0.57673 -2.03175,1.53022 0,0.95245 0.32366,1.55771 1.65461,2.3238 1.129,0.64982 2.47843,2.2794 4.34712,2.30655 2.52932,0.0367 4.09379,0.34406 7.32835,0.34406 1.43384,0 3.55402,-0.48119 4.87002,-0.60582 1.16274,-0.11013 2.50383,0.43601 3.53682,0.24134 1.09582,-0.20651 2.66531,-0.90365 3.57404,-1.19142 0.99234,-0.31426 1.71405,0.0608 2.43055,-0.33267 0.8734,-0.4795 1.52141,-1.01086 1.89415,-1.57724 0.23853,-0.36245 0.36434,-0.73924 0.36434,-1.12595 z"
         id="use4509"
         style="fill:url(#linearGradient4569);fill-opacity:1;fill-rule:nonzero;stroke:none" />
      <path
         d="m 168.42679,893.18827 c 0,-0.31818 -0.70911,-0.15233 -1.36179,-0.99935 -0.18396,-0.23874 -0.14767,-1.64404 -0.35326,-1.83694 -0.35017,-0.32857 -0.69689,-0.0966 -1.069,-0.34972 -0.36335,-0.24719 -0.72297,0.47847 -1.05115,0.19857 -0.55182,-0.47063 -0.1174,-1.5755 -0.70626,-1.9229 -1.24246,-0.73297 -2.1287,-0.34193 -3.43406,-0.79057 -1.06019,-0.36439 -1.26255,0.69773 -2.28883,0.38836 -2.22863,-0.67179 -2.20691,-1.51132 -4.97002,-1.51132 -1.51095,0 -3.02931,1.73215 -4.40785,1.87003 -2.11219,0.21126 -0.74893,-5.83681 -5.65648,1.04709 -0.79975,1.12181 -1.92874,1.5765 -2.66955,1.99388 -1.16345,0.6555 -2.03175,0.57674 -2.03175,1.53022 0,0.95245 0.32366,1.55771 1.65462,2.3238 1.129,0.64983 2.47843,2.2794 4.34711,2.30655 2.52933,0.0367 4.09379,0.34406 7.32835,0.34406 1.43385,0 3.55403,-0.48118 4.87002,-0.60582 1.16274,-0.11013 2.50384,0.43602 3.53683,0.24135 1.09581,-0.20651 2.6653,-0.90365 3.57403,-1.19142 0.99235,-0.31426 1.71405,0.0608 2.43055,-0.33267 0.8734,-0.47951 1.52141,-1.01086 1.89415,-1.57724 0.23853,-0.36245 0.36434,-0.73924 0.36434,-1.12595 z"
         id="use4511"
         style="fill:url(#linearGradient4573);fill-opacity:1;fill-rule:nonzero;stroke:none" />
      <path
         d="m 199.70023,935.90148 c 0,-0.31819 -0.70911,-0.15233 -1.36179,-0.99935 -0.18396,-0.23874 -0.14767,-1.64404 -0.35326,-1.83694 -0.35017,-0.32857 -0.69689,-0.0966 -1.069,-0.34972 -0.36335,-0.24719 -0.72297,0.47847 -1.05116,0.19857 -0.55182,-0.47063 -0.11739,-1.5755 -0.70626,-1.9229 -1.24245,-0.73297 -2.1287,-0.34193 -3.43405,-0.79057 -1.06019,-0.36439 -1.26256,0.69773 -2.28884,0.38836 -2.22863,-0.67179 -2.2069,-1.51132 -4.97002,-1.51132 -1.51095,0 -3.02931,1.73215 -4.40785,1.87003 -2.11219,0.21126 -0.74893,-5.83681 -5.65648,1.04709 -0.79974,1.12181 -1.92874,1.5765 -2.66955,1.99388 -1.16344,0.6555 -2.03174,0.57674 -2.03174,1.53022 0,0.95245 0.32365,1.55771 1.65461,2.3238 1.129,0.64983 2.47843,2.2794 4.34712,2.30655 2.52932,0.0367 4.09379,0.34406 7.32834,0.34406 1.43385,0 3.55403,-0.48119 4.87002,-0.60582 1.16275,-0.11013 2.50384,0.43601 3.53683,0.24134 1.09582,-0.20651 2.66531,-0.90365 3.57403,-1.19142 0.99235,-0.31426 1.71406,0.0608 2.43056,-0.33267 0.8734,-0.4795 1.52141,-1.01086 1.89415,-1.57724 0.23853,-0.36245 0.36434,-0.73924 0.36434,-1.12595 z"
         id="use4513"
         style="fill:url(#linearGradient4577);fill-opacity:1;fill-rule:nonzero;stroke:none" />
      <path
         d="m 240.41978,912.28674 c 0,-0.31819 -0.70911,-0.15233 -1.36179,-0.99935 -0.18396,-0.23874 -0.14767,-1.64404 -0.35326,-1.83694 -0.35017,-0.32857 -0.69689,-0.0966 -1.069,-0.34972 -0.36335,-0.24719 -0.72297,0.47847 -1.05116,0.19857 -0.55181,-0.47063 -0.11739,-1.5755 -0.70626,-1.9229 -1.24245,-0.73297 -2.12869,-0.34193 -3.43405,-0.79057 -1.06019,-0.36439 -1.26256,0.69773 -2.28883,0.38836 -2.22863,-0.67179 -2.20691,-1.51132 -4.97003,-1.51132 -1.51094,0 -3.0293,1.73215 -4.40785,1.87003 -2.11219,0.21126 -0.74893,-5.83681 -5.65648,1.04709 -0.79974,1.12181 -1.92873,1.5765 -2.66954,1.99388 -1.16345,0.6555 -2.03175,0.57674 -2.03175,1.53022 0,0.95245 0.32366,1.55771 1.65462,2.3238 1.12899,0.64983 2.47843,2.2794 4.34711,2.30655 2.52932,0.0367 4.09379,0.34406 7.32835,0.34406 1.43384,0 3.55402,-0.48119 4.87002,-0.60582 1.16274,-0.11013 2.50383,0.43601 3.53682,0.24134 1.09582,-0.20651 2.66531,-0.90365 3.57404,-1.19142 0.99234,-0.31426 1.71405,0.0608 2.43055,-0.33267 0.8734,-0.4795 1.52141,-1.01086 1.89415,-1.57724 0.23853,-0.36245 0.36434,-0.73924 0.36434,-1.12595 z"
         id="use4515"
         style="fill:url(#linearGradient4581);fill-opacity:1;fill-rule:nonzero;stroke:none" />
      <path
         d="m 191.69811,910.13359 c 0,-0.31819 -0.70911,-0.15233 -1.36179,-0.99936 -0.18396,-0.23874 -0.14767,-1.64404 -0.35326,-1.83694 -0.35017,-0.32857 -0.69689,-0.0966 -1.069,-0.34972 -0.36335,-0.24719 -0.72297,0.47847 -1.05115,0.19857 -0.55182,-0.47063 -0.1174,-1.5755 -0.70626,-1.9229 -1.24246,-0.73297 -2.1287,-0.34193 -3.43406,-0.79057 -1.06019,-0.36439 -1.26255,0.69773 -2.28883,0.38836 -2.22863,-0.67179 -2.20691,-1.51132 -4.97003,-1.51132 -1.51094,0 -3.0293,1.73216 -4.40784,1.87004 -2.1122,0.21126 -0.74894,-5.83682 -5.65648,1.04709 -0.79975,1.12181 -1.92874,1.5765 -2.66955,1.99388 -1.16345,0.65549 -2.03175,0.57674 -2.03175,1.53022 0,0.95245 0.32366,1.55771 1.65462,2.3238 1.129,0.64982 2.47843,2.2794 4.34711,2.30655 2.52933,0.0367 4.09379,0.34406 7.32835,0.34406 1.43385,0 3.55403,-0.48119 4.87002,-0.60582 1.16274,-0.11013 2.50384,0.43601 3.53682,0.24134 1.09582,-0.20651 2.66531,-0.90365 3.57404,-1.19142 0.99235,-0.31426 1.71405,0.0608 2.43055,-0.33267 0.8734,-0.4795 1.52141,-1.01086 1.89415,-1.57724 0.23853,-0.36245 0.36434,-0.73924 0.36434,-1.12595 z"
         id="use4517"
         style="fill:url(#linearGradient4585);fill-opacity:1;fill-rule:nonzero;stroke:none" />
      <path
         d="m 218.00532,901.90043 c 0,-0.31819 -0.70911,-0.15233 -1.36179,-0.99935 -0.18396,-0.23874 -0.14767,-1.64404 -0.35326,-1.83694 -0.35017,-0.32857 -0.69689,-0.0966 -1.069,-0.34972 -0.36335,-0.24719 -0.72297,0.47847 -1.05116,0.19857 -0.55181,-0.47063 -0.11739,-1.5755 -0.70626,-1.9229 -1.24245,-0.73297 -2.12869,-0.34193 -3.43405,-0.79057 -1.06019,-0.36439 -1.26256,0.69773 -2.28883,0.38836 -2.22863,-0.67179 -2.20691,-1.51132 -4.97003,-1.51132 -1.51094,0 -3.0293,1.73215 -4.40785,1.87003 -2.11219,0.21126 -0.74893,-5.83681 -5.65648,1.04709 -0.79974,1.12181 -1.92873,1.5765 -2.66954,1.99388 -1.16345,0.6555 -2.03175,0.57674 -2.03175,1.53022 0,0.95245 0.32366,1.55771 1.65462,2.3238 1.12899,0.64983 2.47843,2.2794 4.34711,2.30655 2.52932,0.0367 4.09379,0.34406 7.32835,0.34406 1.43384,0 3.55402,-0.48119 4.87002,-0.60582 1.16274,-0.11013 2.50383,0.43601 3.53682,0.24134 1.09582,-0.20651 2.66531,-0.90365 3.57404,-1.19142 0.99234,-0.31426 1.71405,0.0608 2.43055,-0.33267 0.8734,-0.4795 1.52141,-1.01086 1.89415,-1.57724 0.23853,-0.36245 0.36434,-0.73924 0.36434,-1.12595 z"
         id="use4519"
         style="fill:url(#linearGradient4589);fill-opacity:1;fill-rule:nonzero;stroke:none" />
      <path
         d="m 202.65568,921.63387 c 0,-0.31819 -0.70911,-0.15233 -1.36179,-0.99935 -0.18396,-0.23874 -0.14767,-1.64404 -0.35326,-1.83694 -0.35017,-0.32857 -0.69689,-0.0966 -1.069,-0.34972 -0.36335,-0.24719 -0.72297,0.47847 -1.05116,0.19857 -0.55181,-0.47063 -0.11739,-1.5755 -0.70626,-1.9229 -1.24245,-0.73297 -2.12869,-0.34193 -3.43405,-0.79057 -1.06019,-0.36439 -1.26256,0.69773 -2.28883,0.38836 -2.22863,-0.67179 -2.20691,-1.51132 -4.97003,-1.51132 -1.51094,0 -3.0293,1.73215 -4.40785,1.87003 -2.11219,0.21126 -0.74893,-5.83681 -5.65648,1.04709 -0.79974,1.12181 -1.92873,1.5765 -2.66954,1.99388 -1.16345,0.6555 -2.03175,0.57674 -2.03175,1.53022 0,0.95245 0.32366,1.55771 1.65462,2.3238 1.129,0.64983 2.47843,2.2794 4.34711,2.30655 2.52932,0.0367 4.09379,0.34406 7.32835,0.34406 1.43384,0 3.55402,-0.48119 4.87002,-0.60582 1.16274,-0.11013 2.50383,0.43601 3.53682,0.24134 1.09582,-0.20651 2.66531,-0.90365 3.57404,-1.19142 0.99234,-0.31426 1.71405,0.0608 2.43055,-0.33267 0.8734,-0.4795 1.52141,-1.01086 1.89415,-1.57724 0.23853,-0.36245 0.36434,-0.73924 0.36434,-1.12595 z"
         id="use4521"
         style="fill:url(#linearGradient4593);fill-opacity:1;fill-rule:nonzero;stroke:none" />
      <path
         d="m 160.53781,901.26616 c 0,-0.31819 -0.70911,-0.15233 -1.36179,-0.99935 -0.18396,-0.23874 -0.14767,-1.64404 -0.35326,-1.83694 -0.35017,-0.32857 -0.69689,-0.0966 -1.069,-0.34972 -0.36335,-0.24719 -0.72297,0.47847 -1.05116,0.19857 -0.55182,-0.47063 -0.11739,-1.5755 -0.70626,-1.9229 -1.24245,-0.73297 -2.1287,-0.34193 -3.43405,-0.79057 -1.06019,-0.36439 -1.26256,0.69773 -2.28884,0.38836 -2.22863,-0.67179 -2.2069,-1.51132 -4.97002,-1.51132 -1.51095,0 -3.02931,1.73215 -4.40785,1.87003 -2.11219,0.21126 -0.74893,-5.83681 -5.65648,1.04709 -0.79975,1.12181 -1.92874,1.5765 -2.66955,1.99388 -1.16344,0.6555 -2.03174,0.57674 -2.03174,1.53022 0,0.95245 0.32365,1.55771 1.65461,2.3238 1.129,0.64983 2.47843,2.2794 4.34712,2.30655 2.52932,0.0367 4.09379,0.34406 7.32834,0.34406 1.43385,0 3.55403,-0.48119 4.87002,-0.60582 1.16274,-0.11013 2.50384,0.43601 3.53683,0.24134 1.09582,-0.20651 2.66531,-0.90365 3.57403,-1.19142 0.99235,-0.31426 1.71406,0.0608 2.43056,-0.33267 0.8734,-0.4795 1.52141,-1.01086 1.89415,-1.57724 0.23853,-0.36245 0.36434,-0.73924 0.36434,-1.12595 z"
         id="use4525"
         style="fill:url(#linearGradient4597);fill-opacity:1;fill-rule:nonzero;stroke:none" />
      <path
         d="m 122.15529,926.52364 c 0,-0.31819 -0.70911,-0.15233 -1.36179,-0.99935 -0.18396,-0.23874 -0.14767,-1.64404 -0.35326,-1.83694 -0.35017,-0.32857 -0.69689,-0.0966 -1.069,-0.34972 -0.36335,-0.24719 -0.72297,0.47847 -1.05116,0.19857 -0.55182,-0.47063 -0.11739,-1.5755 -0.70626,-1.9229 -1.24245,-0.73297 -2.1287,-0.34193 -3.43405,-0.79057 -1.06019,-0.36439 -1.26256,0.69773 -2.28884,0.38836 -2.22863,-0.67179 -2.2069,-1.51132 -4.97002,-1.51132 -1.51095,0 -3.02931,1.73215 -4.40785,1.87003 -2.11219,0.21126 -0.74893,-5.83681 -5.65648,1.04709 -0.799745,1.12181 -1.928738,1.5765 -2.669547,1.99388 -1.163445,0.6555 -2.031746,0.57674 -2.031746,1.53022 0,0.95245 0.323656,1.55771 1.654615,2.3238 1.128999,0.64983 2.47843,2.2794 4.347116,2.30655 2.529322,0.0367 4.093792,0.34406 7.328342,0.34406 1.43385,0 3.55403,-0.48119 4.87002,-0.60582 1.16275,-0.11013 2.50384,0.43601 3.53683,0.24134 1.09582,-0.20651 2.66531,-0.90365 3.57403,-1.19142 0.99235,-0.31426 1.71406,0.0608 2.43056,-0.33267 0.8734,-0.4795 1.52141,-1.01086 1.89415,-1.57724 0.23853,-0.36245 0.36434,-0.73924 0.36434,-1.12595 z"
         id="use4527"
         style="fill:url(#linearGradient4601);fill-opacity:1;fill-rule:nonzero;stroke:none" />
      <path
         d="m 136.11799,940.14201 c 0,-0.31819 -0.70911,-0.15233 -1.36179,-0.99935 -0.18396,-0.23874 -0.14767,-1.64404 -0.35326,-1.83694 -0.35017,-0.32857 -0.69689,-0.0966 -1.069,-0.34972 -0.36335,-0.24719 -0.72297,0.47847 -1.05116,0.19857 -0.55181,-0.47063 -0.11739,-1.5755 -0.70626,-1.9229 -1.24245,-0.73297 -2.12869,-0.34193 -3.43405,-0.79057 -1.06019,-0.36439 -1.26256,0.69773 -2.28884,0.38836 -2.22863,-0.67179 -2.2069,-1.51132 -4.97002,-1.51132 -1.51094,0 -3.02931,1.73215 -4.40785,1.87003 -2.11219,0.21126 -0.74893,-5.83681 -5.65648,1.04709 -0.79974,1.12181 -1.92874,1.5765 -2.66955,1.99388 -1.16344,0.6555 -2.03174,0.57674 -2.03174,1.53022 0,0.95245 0.32365,1.55771 1.65461,2.3238 1.129,0.64983 2.47843,2.2794 4.34712,2.30655 2.52932,0.0367 4.09379,0.34406 7.32834,0.34406 1.43385,0 3.55403,-0.48119 4.87003,-0.60582 1.16274,-0.11013 2.50383,0.43601 3.53682,0.24134 1.09582,-0.20651 2.66531,-0.90365 3.57403,-1.19142 0.99235,-0.31426 1.71406,0.0608 2.43056,-0.33267 0.8734,-0.4795 1.52141,-1.01086 1.89415,-1.57724 0.23853,-0.36245 0.36434,-0.73924 0.36434,-1.12595 z"
         id="use4529"
         style="fill:url(#linearGradient4605);fill-opacity:1;fill-rule:nonzero;stroke:none" />
      <path
         d="m 180.02782,949.81423 c 0,-0.31819 -0.70911,-0.15233 -1.36179,-0.99935 -0.18396,-0.23874 -0.14767,-1.64404 -0.35326,-1.83694 -0.35017,-0.32857 -0.69689,-0.0966 -1.069,-0.34972 -0.36335,-0.24719 -0.72297,0.47847 -1.05116,0.19857 -0.55181,-0.47063 -0.11739,-1.5755 -0.70626,-1.9229 -1.24245,-0.73297 -2.12869,-0.34193 -3.43405,-0.79057 -1.06019,-0.36439 -1.26256,0.69773 -2.28883,0.38836 -2.22863,-0.67179 -2.20691,-1.51132 -4.97003,-1.51132 -1.51094,0 -3.0293,1.73215 -4.40785,1.87003 -2.11219,0.21126 -0.74893,-5.83681 -5.65648,1.04709 -0.79974,1.12181 -1.92873,1.5765 -2.66954,1.99388 -1.16345,0.6555 -2.03175,0.57674 -2.03175,1.53022 0,0.95245 0.32366,1.55771 1.65462,2.3238 1.129,0.64983 2.47843,2.2794 4.34711,2.30655 2.52932,0.0367 4.09379,0.34406 7.32835,0.34406 1.43384,0 3.55402,-0.48119 4.87002,-0.60582 1.16274,-0.11013 2.50383,0.43601 3.53682,0.24134 1.09582,-0.20651 2.66531,-0.90365 3.57404,-1.19142 0.99234,-0.31426 1.71405,0.0608 2.43055,-0.33267 0.8734,-0.4795 1.52141,-1.01086 1.89415,-1.57724 0.23853,-0.36245 0.36434,-0.73924 0.36434,-1.12595 z"
         id="use4531"
         style="fill:url(#linearGradient4609);fill-opacity:1;fill-rule:nonzero;stroke:none" />
      <path
         d="m 175.78396,946.9278 c 0,-0.31819 -0.70911,-0.15233 -1.36179,-0.99935 -0.18396,-0.23874 -0.14767,-1.64404 -0.35326,-1.83694 -0.35017,-0.32857 -0.69689,-0.0966 -1.069,-0.34972 -0.36335,-0.24719 -0.72297,0.47847 -1.05115,0.19857 -0.55182,-0.47063 -0.1174,-1.5755 -0.70626,-1.9229 -1.24246,-0.73297 -2.1287,-0.34193 -3.43406,-0.79057 -1.06019,-0.36439 -1.26255,0.69773 -2.28883,0.38836 -2.22863,-0.67179 -2.20691,-1.51132 -4.97002,-1.51132 -1.51095,0 -3.02931,1.73215 -4.40785,1.87003 -2.11219,0.21126 -0.74894,-5.83681 -5.65648,1.04709 -0.79975,1.12181 -1.92874,1.5765 -2.66955,1.99388 -1.16345,0.6555 -2.03175,0.57674 -2.03175,1.53022 0,0.95245 0.32366,1.55771 1.65462,2.3238 1.129,0.64983 2.47843,2.2794 4.34711,2.30655 2.52933,0.0367 4.09379,0.34406 7.32835,0.34406 1.43385,0 3.55403,-0.48119 4.87002,-0.60582 1.16274,-0.11013 2.50384,0.43601 3.53683,0.24134 1.09581,-0.20651 2.6653,-0.90365 3.57403,-1.19142 0.99235,-0.31426 1.71405,0.0608 2.43055,-0.33267 0.8734,-0.4795 1.52141,-1.01086 1.89415,-1.57724 0.23853,-0.36245 0.36434,-0.73924 0.36434,-1.12595 z"
         id="use4533"
         style="fill:url(#linearGradient4613);fill-opacity:1;fill-rule:nonzero;stroke:none" />
      <path
         d="m 227.12631,925.21749 c 0,-0.31819 -0.70911,-0.15233 -1.36179,-0.99935 -0.18396,-0.23874 -0.14767,-1.64404 -0.35326,-1.83694 -0.35017,-0.32857 -0.69689,-0.0966 -1.069,-0.34972 -0.36335,-0.24719 -0.72297,0.47847 -1.05116,0.19857 -0.55181,-0.47063 -0.11739,-1.5755 -0.70626,-1.9229 -1.24245,-0.73297 -2.12869,-0.34193 -3.43405,-0.79057 -1.06019,-0.36439 -1.26256,0.69773 -2.28883,0.38836 -2.22863,-0.67179 -2.20691,-1.51132 -4.97003,-1.51132 -1.51094,0 -3.0293,1.73215 -4.40785,1.87003 -2.11219,0.21126 -0.74893,-5.83681 -5.65648,1.04709 -0.79974,1.12181 -1.92873,1.5765 -2.66954,1.99388 -1.16345,0.6555 -2.03175,0.57674 -2.03175,1.53022 0,0.95245 0.32366,1.55771 1.65462,2.3238 1.12899,0.64983 2.47843,2.2794 4.34711,2.30655 2.52932,0.0367 4.09379,0.34406 7.32835,0.34406 1.43384,0 3.55402,-0.48119 4.87002,-0.60582 1.16274,-0.11013 2.50383,0.43601 3.53682,0.24134 1.09582,-0.20651 2.66531,-0.90365 3.57404,-1.19142 0.99234,-0.31426 1.71405,0.0608 2.43055,-0.33267 0.8734,-0.4795 1.52141,-1.01086 1.89415,-1.57724 0.23853,-0.36245 0.36434,-0.73924 0.36434,-1.12595 z"
         id="use4535"
         style="fill:url(#linearGradient4617);fill-opacity:1;fill-rule:nonzero;stroke:none" />
      <path
         d="m 197.247,895.12951 c 0,-0.31819 -0.70911,-0.15233 -1.36179,-0.99935 -0.18396,-0.23874 -0.14768,-1.64404 -0.35327,-1.83694 -0.35016,-0.32857 -0.69689,-0.0966 -1.069,-0.34972 -0.36334,-0.24719 -0.72296,0.47847 -1.05115,0.19857 -0.55182,-0.47063 -0.11739,-1.5755 -0.70626,-1.9229 -1.24245,-0.73297 -2.1287,-0.34193 -3.43406,-0.79057 -1.06019,-0.36439 -1.26255,0.69773 -2.28883,0.38836 -2.22863,-0.67179 -2.2069,-1.51132 -4.97002,-1.51132 -1.51095,0 -3.02931,1.73215 -4.40785,1.87003 -2.11219,0.21126 -0.74893,-5.83681 -5.65648,1.04709 -0.79975,1.12181 -1.92874,1.5765 -2.66955,1.99388 -1.16344,0.6555 -2.03174,0.57674 -2.03174,1.53022 0,0.95245 0.32365,1.55771 1.65461,2.3238 1.129,0.64983 2.47843,2.2794 4.34712,2.30655 2.52932,0.0367 4.09379,0.34406 7.32834,0.34406 1.43385,0 3.55403,-0.48119 4.87002,-0.60582 1.16274,-0.11013 2.50384,0.43601 3.53683,0.24134 1.09582,-0.20651 2.6653,-0.90365 3.57403,-1.19142 0.99235,-0.31426 1.71406,0.0608 2.43056,-0.33267 0.8734,-0.4795 1.52141,-1.01086 1.89414,-1.57724 0.23854,-0.36245 0.36435,-0.73924 0.36435,-1.12595 z"
         id="use4541"
         style="fill:url(#linearGradient4621);fill-opacity:1;fill-rule:nonzero;stroke:none" />
      <path
         d="m 104.56727,904.99599 c 0,-0.31819 -0.70911,-0.15233 -1.36179,-0.99935 -0.18396,-0.23874 -0.14767,-1.64404 -0.35326,-1.83694 -0.35017,-0.32857 -0.69689,-0.0966 -1.069,-0.34972 -0.36335,-0.24719 -0.72297,0.47847 -1.05116,0.19857 -0.55182,-0.47063 -0.11739,-1.5755 -0.70626,-1.9229 -1.242453,-0.73297 -2.128697,-0.34193 -3.434055,-0.79057 -1.06019,-0.36439 -1.262556,0.69773 -2.288833,0.38836 -2.228631,-0.67179 -2.206905,-1.51132 -4.970024,-1.51132 -1.510945,0 -3.029306,1.73215 -4.407849,1.87003 -2.112191,0.21126 -0.748932,-5.83681 -5.65648,1.04709 -0.799745,1.12181 -1.928738,1.5765 -2.669547,1.99388 -1.163445,0.6555 -2.031746,0.57674 -2.031746,1.53022 0,0.95245 0.323656,1.55771 1.654615,2.3238 1.128999,0.64983 2.47843,2.2794 4.347116,2.30655 2.529321,0.0367 4.09379,0.34406 7.328344,0.34406 1.433847,0 3.554027,-0.48119 4.870022,-0.60582 1.162741,-0.11013 2.503835,0.43601 3.536824,0.24134 1.095819,-0.20651 2.665308,-0.90365 3.574035,-1.19142 0.992348,-0.31426 1.714058,0.0608 2.430558,-0.33267 0.8734,-0.4795 1.52141,-1.01086 1.89415,-1.57724 0.23853,-0.36245 0.36434,-0.73924 0.36434,-1.12595 z"
         id="use4543"
         style="fill:url(#linearGradient4625);fill-opacity:1;fill-rule:nonzero;stroke:none" />
    </g>
  </g>
</svg>
