<?xml version="1.0" encoding="UTF-8" standalone="no"?>
<!-- Created with Inkscape (http://www.inkscape.org/) -->

<svg
   xmlns:dc="http://purl.org/dc/elements/1.1/"
   xmlns:cc="http://creativecommons.org/ns#"
   xmlns:rdf="http://www.w3.org/1999/02/22-rdf-syntax-ns#"
   xmlns:svg="http://www.w3.org/2000/svg"
   xmlns="http://www.w3.org/2000/svg"
   xmlns:xlink="http://www.w3.org/1999/xlink"
   version="1.1"
   width="300"
   height="300"
   id="svg2">
  <defs
     id="defs4">
    <linearGradient
       id="linearGradient3801">
      <stop
         id="stop3803"
         style="stop-color:#778899;stop-opacity:1"
         offset="0" />
      <stop
         id="stop3805"
         style="stop-color:#b0c4de;stop-opacity:1"
         offset="1" />
    </linearGradient>
    <linearGradient
       x1="210.21228"
       y1="260.18195"
       x2="97.570084"
       y2="239.47382"
       id="linearGradient3807"
       xlink:href="#linearGradient3801"
       gradientUnits="userSpaceOnUse"
       gradientTransform="matrix(-1,0,0,1,292.125,752.36218)" />
    <linearGradient
       x1="210.21228"
       y1="260.18195"
       x2="97.570084"
       y2="239.47382"
       id="linearGradient3807-4"
       xlink:href="#linearGradient3801-0"
       gradientUnits="userSpaceOnUse"
       gradientTransform="matrix(-1,0,0,1,292.125,752.36218)" />
    <linearGradient
       id="linearGradient3801-0">
      <stop
         id="stop3803-9"
         style="stop-color:#778899;stop-opacity:1"
         offset="0" />
      <stop
         id="stop3805-4"
         style="stop-color:#b0c4de;stop-opacity:1"
         offset="1" />
    </linearGradient>
    <linearGradient
       x1="210.21228"
       y1="260.18195"
       x2="97.570084"
       y2="239.47382"
       id="linearGradient3824"
       xlink:href="#linearGradient3801-0"
       gradientUnits="userSpaceOnUse"
       gradientTransform="matrix(-0.96592583,-0.25881905,-0.25881905,0.96592583,185.63135,489.2086)" />
    <linearGradient
       x1="210.21228"
       y1="260.18195"
       x2="97.570084"
       y2="239.47382"
       id="linearGradient3824-8"
       xlink:href="#linearGradient3801-0-2"
       gradientUnits="userSpaceOnUse"
       gradientTransform="matrix(-0.96592583,-0.25881905,-0.25881905,0.96592583,185.63135,489.2086)" />
    <linearGradient
       id="linearGradient3801-0-2">
      <stop
         id="stop3803-9-4"
         style="stop-color:#778899;stop-opacity:1"
         offset="0" />
      <stop
         id="stop3805-4-5"
         style="stop-color:#b0c4de;stop-opacity:1"
         offset="1" />
    </linearGradient>
    <linearGradient
       x1="210.21228"
       y1="260.18195"
       x2="97.570084"
       y2="239.47382"
       id="linearGradient3858"
       xlink:href="#linearGradient3801-0-2"
       gradientUnits="userSpaceOnUse"
       gradientTransform="matrix(-0.5,-0.86602541,-0.86602541,0.5,542.09269,697.3578)" />
    <linearGradient
       x1="210.21228"
       y1="260.18195"
       x2="97.570084"
       y2="239.47382"
       id="linearGradient3807-1"
       xlink:href="#linearGradient3801-7"
       gradientUnits="userSpaceOnUse"
       gradientTransform="matrix(-1,0,0,1,292.125,752.36218)" />
    <linearGradient
       id="linearGradient3801-7">
      <stop
         id="stop3803-1"
         style="stop-color:#778899;stop-opacity:1"
         offset="0" />
      <stop
         id="stop3805-1"
         style="stop-color:#b0c4de;stop-opacity:1"
         offset="1" />
    </linearGradient>
    <linearGradient
       x1="210.21228"
       y1="260.18195"
       x2="97.570084"
       y2="239.47382"
       id="linearGradient3892"
       xlink:href="#linearGradient3801-7"
       gradientUnits="userSpaceOnUse"
       gradientTransform="matrix(-0.70710678,-0.70710678,-0.70710678,0.70710678,395.49681,582.60654)" />
  </defs>
  <metadata
     id="metadata7">
    <rdf:RDF>
      <cc:Work
         rdf:about="">
        <dc:format>image/svg+xml</dc:format>
        <dc:type
           rdf:resource="http://purl.org/dc/dcmitype/StillImage" />
        <dc:title></dc:title>
      </cc:Work>
    </rdf:RDF>
  </metadata>
  <g
     transform="translate(0,-752.36218)"
     id="layer1">
    <path
       d="m 246.0625,973.83093 0,5 -35.78125,0 c -1.385,0 -2.5,1.115 -2.5,2.5 0,1.385 1.115,2.5 2.5,2.5 l 35.78125,0 0,5 -35.78125,0 c -1.385,0 -2.5,1.115 -2.5,2.5 0,1.385 1.115,2.5 2.5,2.5 l 35.78125,0 0,5 -35.78125,0 c -1.385,0 -2.5,1.115 -2.5,2.49997 0,1.385 1.115,2.5 2.5,2.5 l 35.78125,0 0,5 -40.46875,0 c -8.87337,0 -16.31987,-5.2622 -18.71875,-12.49997 l -2.4375,0 c -1.26865,1.5187 -3.16987,2.5 -5.3125,2.5 l -126.125,0 c -3.83743,0 -6.9375,-3.10007 -6.9375,-6.9375 l 0,-1.15625 c 0,-3.83743 3.10007,-6.90625 6.9375,-6.90625 l 126.125,0 c 2.15855,0 4.07529,0.96172 5.34375,2.5 l 2.40625,0 c 2.3786,-7.25207 9.82212,-12.5 18.71875,-12.5 l 40.46875,0 z"
       id="Essgabel01"
       style="fill:url(#linearGradient3807);fill-opacity:1;fill-rule:nonzero;stroke:#778899;stroke-width:2;stroke-miterlimit:4;stroke-opacity:1;stroke-dasharray:none" />
    <path
       d="m 83.818058,691.20913 -1.29409,4.82963 -34.562043,-9.26087 c -1.3378,-0.35846 -2.70339,0.42996 -3.06186,1.76777 -0.35846,1.33781 0.42996,2.7034 1.76777,3.06186 l 34.562033,9.26087 -1.29409,4.82963 -34.562043,-9.26087 c -1.3378,-0.35846 -2.70339,0.42996 -3.06186,1.76777 -0.35846,1.3378 0.42996,2.7034 1.76777,3.06186 l 34.562033,9.26087 -1.29409,4.82963 -34.562043,-9.26087 c -1.3378,-0.35847 -2.7034,0.42996 -3.06185,1.76774 -0.35847,1.3378 0.42996,2.70339 1.76776,3.06186 l 34.562043,9.26087 -1.2941,4.82963 -39.089813,-10.47409 c -8.57101,-2.29659 -14.40182,-9.30678 -14.84569,-16.91881 l -2.35445,-0.63087 c -1.61849,1.1386 -3.7089,1.59439 -5.77852,1.03984 L -109.13647,665.38903 c -3.70668,-0.9932 -5.89876,-4.79 -4.90556,-8.49667 l 0.29926,-1.11685 c 0.9932,-3.70668 4.78191,-5.86857 8.48858,-4.87537 l 121.827395,32.64355 c 2.085,0.55867 3.68752,1.98371 4.51462,3.79788 l 2.32426,0.62278 c 4.17452,-6.38933 12.72268,-9.53192 21.31616,-7.2293 l 39.089813,10.47408 z"
       id="Essgabel02"
       style="fill:url(#linearGradient3824);fill-opacity:1;fill-rule:nonzero;stroke:#778899;stroke-width:2;stroke-miterlimit:4;stroke-opacity:1;stroke-dasharray:none" />
    <path
       d="m 206.32365,706.63749 -3.53554,3.53553 -25.30116,-25.30117 c -0.97935,-0.97934 -2.55619,-0.97934 -3.53554,0 -0.97934,0.97935 -0.97934,2.5562 0,3.53554 l 25.30117,25.30116 -3.53554,3.53554 -25.30116,-25.30117 c -0.97934,-0.97934 -2.55619,-0.97934 -3.53553,0 -0.97935,0.97935 -0.97935,2.55619 0,3.53554 l 25.30116,25.30116 -3.53553,3.53553 -25.30117,-25.30116 c -0.97934,-0.97934 -2.55619,-0.97934 -3.53551,-2e-5 -0.97934,0.97934 -0.97934,2.55619 0,3.53553 l 25.30116,25.30117 -3.53553,3.53553 -28.61573,-28.61573 c -6.27442,-6.27442 -7.81895,-15.26082 -4.39734,-22.07496 l -1.72357,-1.72358 c -1.97096,0.17681 -4.00921,-0.47367 -5.52427,-1.98874 L 52.130171,587.79935 c -2.71347,-2.71347 -2.71347,-7.09763 0,-9.8111 l 0.8176,-0.8176 c 2.71347,-2.71347 7.07553,-2.69137 9.78901,0.0221 l 89.183839,89.18384 c 1.52632,1.52633 2.20162,3.56171 2.01083,5.54637 l 1.70148,1.70148 c 6.80991,-3.44607 15.78412,-1.89355 22.07499,4.39732 l 28.61573,28.61573 z"
       id="Essgabel03"
       style="fill:url(#linearGradient3892);fill-opacity:1;fill-rule:nonzero;stroke:#778899;stroke-width:2;stroke-miterlimit:4;stroke-opacity:1;stroke-dasharray:none" />
  </g>
</svg>
