<?xml version="1.0" encoding="UTF-8" standalone="no"?>
<!-- Created with Inkscape (http://www.inkscape.org/) -->

<svg
   xmlns:dc="http://purl.org/dc/elements/1.1/"
   xmlns:cc="http://creativecommons.org/ns#"
   xmlns:rdf="http://www.w3.org/1999/02/22-rdf-syntax-ns#"
   xmlns:svg="http://www.w3.org/2000/svg"
   xmlns="http://www.w3.org/2000/svg"
   xmlns:xlink="http://www.w3.org/1999/xlink"
   version="1.1"
   width="300"
   height="300"
   id="svg2">
  <defs
     id="defs4">
    <linearGradient
       id="linearGradient3878">
      <stop
         id="stop3880"
         style="stop-color:#fffacd;stop-opacity:1"
         offset="0" />
      <stop
         id="stop3882"
         style="stop-color:#fffffa;stop-opacity:1"
         offset="1" />
    </linearGradient>
    <linearGradient
       id="linearGradient3762">
      <stop
         id="stop3764"
         style="stop-color:#778899;stop-opacity:1"
         offset="0" />
      <stop
         id="stop3766"
         style="stop-color:#b0c4de;stop-opacity:1"
         offset="1" />
    </linearGradient>
    <linearGradient
       x1="177.21095"
       y1="243.5779"
       x2="128.29465"
       y2="231.79218"
       id="linearGradient3768"
       xlink:href="#linearGradient3762"
       gradientUnits="userSpaceOnUse"
       gradientTransform="translate(21.428571,730.21932)" />
    <linearGradient
       x1="177.21095"
       y1="243.5779"
       x2="128.29465"
       y2="231.79218"
       id="linearGradient3768-1"
       xlink:href="#linearGradient3762-7"
       gradientUnits="userSpaceOnUse"
       gradientTransform="translate(21.428571,730.21932)" />
    <linearGradient
       id="linearGradient3762-7">
      <stop
         id="stop3764-4"
         style="stop-color:#778899;stop-opacity:1"
         offset="0" />
      <stop
         id="stop3766-0"
         style="stop-color:#b0c4de;stop-opacity:1"
         offset="1" />
    </linearGradient>
    <linearGradient
       x1="177.21095"
       y1="243.5779"
       x2="128.29465"
       y2="231.79218"
       id="linearGradient3785"
       xlink:href="#linearGradient3762-7"
       gradientUnits="userSpaceOnUse"
       gradientTransform="matrix(0.70710678,-0.70710678,0.70710678,0.70710678,-235.42258,573.09269)" />
    <linearGradient
       x1="177.21095"
       y1="243.5779"
       x2="128.29465"
       y2="231.79218"
       id="linearGradient3768-4"
       xlink:href="#linearGradient3762-8"
       gradientUnits="userSpaceOnUse"
       gradientTransform="translate(21.428571,730.21932)" />
    <linearGradient
       id="linearGradient3762-8">
      <stop
         id="stop3764-8"
         style="stop-color:#778899;stop-opacity:1"
         offset="0" />
      <stop
         id="stop3766-2"
         style="stop-color:#b0c4de;stop-opacity:1"
         offset="1" />
    </linearGradient>
    <linearGradient
       x1="177.21095"
       y1="243.5779"
       x2="128.29465"
       y2="231.79218"
       id="linearGradient3819"
       xlink:href="#linearGradient3762-8"
       gradientUnits="userSpaceOnUse"
       gradientTransform="matrix(0.96592583,-0.25881905,0.25881905,0.96592583,-54.907089,498.38648)" />
    <linearGradient
       x1="177.21095"
       y1="243.5779"
       x2="128.29465"
       y2="231.79218"
       id="linearGradient3819-5"
       xlink:href="#linearGradient3762-8-5"
       gradientUnits="userSpaceOnUse"
       gradientTransform="matrix(0.96592583,-0.25881905,0.25881905,0.96592583,-54.907089,498.38648)" />
    <linearGradient
       id="linearGradient3762-8-5">
      <stop
         id="stop3764-8-1"
         style="stop-color:#778899;stop-opacity:1"
         offset="0" />
      <stop
         id="stop3766-2-7"
         style="stop-color:#b0c4de;stop-opacity:1"
         offset="1" />
    </linearGradient>
    <linearGradient
       x1="177.21095"
       y1="243.5779"
       x2="128.29465"
       y2="231.79218"
       id="linearGradient3853"
       xlink:href="#linearGradient3762-8-5"
       gradientUnits="userSpaceOnUse"
       gradientTransform="matrix(0.96592583,-0.25881905,0.25881905,0.96592583,177.28928,493.47814)" />
    <linearGradient
       x1="299.37808"
       y1="-12.341089"
       x2="293.48868"
       y2="-21.626802"
       id="linearGradient3884"
       xlink:href="#linearGradient3878"
       gradientUnits="userSpaceOnUse" />
    <linearGradient
       x1="294.34308"
       y1="-18.963099"
       x2="285.95367"
       y2="-25.927383"
       id="linearGradient3886"
       xlink:href="#linearGradient3878"
       gradientUnits="userSpaceOnUse" />
    <linearGradient
       x1="279.18552"
       y1="-9.9277458"
       x2="276.62244"
       y2="-18.677746"
       id="linearGradient3888"
       xlink:href="#linearGradient3878"
       gradientUnits="userSpaceOnUse" />
    <linearGradient
       x1="177.21095"
       y1="243.5779"
       x2="128.29465"
       y2="231.79218"
       id="linearGradient3853-1"
       xlink:href="#linearGradient3762-8-5-5"
       gradientUnits="userSpaceOnUse"
       gradientTransform="matrix(0.96592583,-0.25881905,0.25881905,0.96592583,177.28928,493.47814)" />
    <linearGradient
       id="linearGradient3762-8-5-5">
      <stop
         id="stop3764-8-1-2"
         style="stop-color:#778899;stop-opacity:1"
         offset="0" />
      <stop
         id="stop3766-2-7-7"
         style="stop-color:#b0c4de;stop-opacity:1"
         offset="1" />
    </linearGradient>
    <linearGradient
       x1="279.18552"
       y1="-9.9277458"
       x2="276.62244"
       y2="-18.677746"
       id="linearGradient3888-6"
       xlink:href="#linearGradient3878-1"
       gradientUnits="userSpaceOnUse" />
    <linearGradient
       id="linearGradient3878-1">
      <stop
         id="stop3880-4"
         style="stop-color:#ff4500;stop-opacity:1"
         offset="0" />
      <stop
         id="stop3882-2"
         style="stop-color:#ffa500;stop-opacity:1"
         offset="1" />
    </linearGradient>
    <linearGradient
       x1="294.34308"
       y1="-18.963099"
       x2="285.95367"
       y2="-25.927383"
       id="linearGradient3886-3"
       xlink:href="#linearGradient3878-1"
       gradientUnits="userSpaceOnUse" />
    <linearGradient
       id="linearGradient3915">
      <stop
         id="stop3917"
         style="stop-color:#fffacd;stop-opacity:1"
         offset="0" />
      <stop
         id="stop3919"
         style="stop-color:#fffffa;stop-opacity:1"
         offset="1" />
    </linearGradient>
    <linearGradient
       x1="299.37808"
       y1="-12.341089"
       x2="293.48868"
       y2="-21.626802"
       id="linearGradient3884-2"
       xlink:href="#linearGradient3878-1"
       gradientUnits="userSpaceOnUse" />
    <linearGradient
       id="linearGradient3922">
      <stop
         id="stop3924"
         style="stop-color:#fffacd;stop-opacity:1"
         offset="0" />
      <stop
         id="stop3926"
         style="stop-color:#fffffa;stop-opacity:1"
         offset="1" />
    </linearGradient>
    <linearGradient
       x1="299.37808"
       y1="-12.341089"
       x2="293.48868"
       y2="-21.626802"
       id="linearGradient3933"
       xlink:href="#linearGradient3878-1"
       gradientUnits="userSpaceOnUse" />
    <linearGradient
       x1="177.21095"
       y1="243.5779"
       x2="128.29465"
       y2="231.79218"
       id="linearGradient3988"
       xlink:href="#linearGradient3762-8-5-5"
       gradientUnits="userSpaceOnUse"
       gradientTransform="matrix(0.96592583,-0.25881905,0.25881905,0.96592583,396.95027,498.98218)" />
    <linearGradient
       x1="177.21095"
       y1="243.5779"
       x2="128.29465"
       y2="231.79218"
       id="linearGradient4002"
       xlink:href="#linearGradient3762-8-5"
       gradientUnits="userSpaceOnUse"
       gradientTransform="matrix(0.96592583,-0.25881905,0.25881905,0.96592583,177.28928,493.47814)" />
    <linearGradient
       x1="177.21095"
       y1="243.5779"
       x2="128.29465"
       y2="231.79218"
       id="linearGradient4010"
       xlink:href="#linearGradient3762-8-5-5"
       gradientUnits="userSpaceOnUse"
       gradientTransform="matrix(0.96592583,-0.25881905,0.25881905,0.96592583,396.95027,498.98218)" />
    <linearGradient
       x1="279.18552"
       y1="-9.9277458"
       x2="276.62244"
       y2="-18.677746"
       id="linearGradient4012"
       xlink:href="#linearGradient3878-1"
       gradientUnits="userSpaceOnUse" />
    <linearGradient
       x1="294.34308"
       y1="-18.963099"
       x2="285.95367"
       y2="-25.927383"
       id="linearGradient4014"
       xlink:href="#linearGradient3878-1"
       gradientUnits="userSpaceOnUse" />
    <linearGradient
       x1="299.37808"
       y1="-12.341089"
       x2="293.48868"
       y2="-21.626802"
       id="linearGradient4016"
       xlink:href="#linearGradient3878-1"
       gradientUnits="userSpaceOnUse" />
    <linearGradient
       x1="177.21095"
       y1="243.5779"
       x2="128.29465"
       y2="231.79218"
       id="linearGradient4022"
       xlink:href="#linearGradient3762-8-5-5"
       gradientUnits="userSpaceOnUse"
       gradientTransform="matrix(0.96592583,-0.25881905,0.25881905,0.96592583,396.95027,498.98218)" />
  </defs>
  <metadata
     id="metadata7">
    <rdf:RDF>
      <cc:Work
         rdf:about="">
        <dc:format>image/svg+xml</dc:format>
        <dc:type
           rdf:resource="http://purl.org/dc/dcmitype/StillImage" />
        <dc:title></dc:title>
      </cc:Work>
    </rdf:RDF>
  </metadata>
  <g
     transform="translate(0,-752.36218)"
     id="layer1">
    <path
       d="m 57.397321,955.21932 c 0,0 -9.385199,25.6711 49.843749,25 38.17843,-0.4325 53.02364,-4.93765 57.4375,-10 0.0104,4e-5 0.0209,0 0.0312,0 l 84.65625,0 c 4.155,0 7.5,-3.345 7.5,-7.5 0,-4.155 -3.345,-7.5 -7.5,-7.5 l -74.40625,0 -10.25,0 -7.65625,0 -13.65625,0 -85.999999,0 z"
       id="Essmesser01"
       style="fill:url(#linearGradient3768);fill-opacity:1;fill-rule:nonzero;stroke:#778899;stroke-width:2;stroke-miterlimit:4;stroke-opacity:1;stroke-dasharray:none" />
    <path
       d="m -50.889812,706.75797 c 0,0 11.51587,24.78855 52.922524,-17.56718 26.690403,-27.30205 34.001929,-40.98482 33.543378,-47.68551 0.0074,-0.007 0.01478,-0.0148 0.02206,-0.0221 l 59.861009,-59.86101 c 2.938028,-2.93803 2.938028,-7.66858 0,-10.60661 -2.938029,-2.93802 -7.668573,-2.93802 -10.606602,0 l -52.613164,52.61317 -7.247844,7.24784 -5.413787,5.41379 -9.656427,9.65643 -60.811177,60.81118 z"
       id="Essmesser03"
       style="fill:url(#linearGradient3785);fill-opacity:1;fill-rule:nonzero;stroke:#778899;stroke-width:2;stroke-miterlimit:4;stroke-opacity:1;stroke-dasharray:none" />
    <path
       d="m 38.070341,706.41039 c 0,0 -2.42123,27.22545 54.61585,11.24764 36.765589,-10.29907 49.938929,-18.49298 52.892169,-24.52518 0.01,-0.003 0.0202,-0.005 0.0301,-0.008 l 81.77165,-21.91065 c 4.01343,-1.07539 6.3787,-5.17216 5.30331,-9.18558 -1.0754,-4.01343 -5.17217,-6.3787 -9.18559,-5.3033 l -71.87092,19.25775 -9.90074,2.6529 -7.39537,1.98158 -13.19092,3.5345 -83.069619,22.25843 z"
       id="Essmesser02"
       style="fill:url(#linearGradient3819);fill-opacity:1;fill-rule:nonzero;stroke:#778899;stroke-width:2;stroke-miterlimit:4;stroke-opacity:1;stroke-dasharray:none" />
    <g
       id="EssmesserButter">
      <path
         d="m 270.26671,701.50204 c 0,0 -2.42123,27.2255 54.61585,11.2476 36.76559,-10.299 49.93893,-18.49293 52.89217,-24.52513 0.01,-0.003 0.0202,-0.005 0.0301,-0.008 l 81.77165,-21.91065 c 4.01343,-1.07539 6.3787,-5.17216 5.30331,-9.18558 -1.0754,-4.01343 -5.17217,-6.3787 -9.18559,-5.3033 l -71.87092,19.25775 -9.90074,2.6529 -7.39537,1.98158 -13.19092,3.5345 -83.06962,22.25843 z"
         id="Essmesser04"
         style="fill:url(#linearGradient4002);fill-opacity:1;fill-rule:nonzero;stroke:#778899;stroke-width:2;stroke-miterlimit:4;stroke-opacity:1;stroke-dasharray:none" />
      <path
         d="m 300.0153,-16.177746 a 18.182745,8.0812206 0 1 1 -36.36549,0 18.182745,8.0812206 0 1 1 36.36549,0 z"
         transform="translate(3.0304576,732.66421)"
         id="path3872"
         style="fill:url(#linearGradient3888);fill-opacity:1;fill-rule:nonzero;stroke:none" />
      <path
         d="m 308.09652,-23.248814 a 16.162441,9.0913725 0 1 1 -32.32488,0 16.162441,9.0913725 0 1 1 32.32488,0 z"
         transform="translate(3.0304576,732.66421)"
         id="path3874"
         style="fill:url(#linearGradient3886);fill-opacity:1;fill-rule:nonzero;stroke:none" />
      <path
         d="m 322.23867,-14.662518 a 16.162441,6.5659914 0 1 1 -32.32488,0 16.162441,6.5659914 0 1 1 32.32488,0 z"
         transform="translate(3.0304576,732.66421)"
         id="path3876"
         style="fill:url(#linearGradient3884);fill-opacity:1;fill-rule:nonzero;stroke:none" />
    </g>
    <g
       id="EssmesserMarmelade">
      <path
         d="m 489.9277,707.00608 c 0,0 -2.42123,27.2255 54.61585,11.2476 36.76559,-10.299 49.93893,-18.49293 52.89217,-24.52513 0.01,-0.003 0.0202,-0.005 0.0301,-0.008 l 81.77165,-21.91065 c 4.01343,-1.07539 6.3787,-5.17216 5.30331,-9.18558 -1.0754,-4.01343 -5.17217,-6.3787 -9.18559,-5.3033 l -71.87092,19.25775 -9.90074,2.6529 -7.39537,1.98158 -13.19092,3.5345 -83.06962,22.25843 z"
         id="Essmesser04-1"
         style="fill:url(#linearGradient4022);fill-opacity:1;fill-rule:nonzero;stroke:#778899;stroke-width:2;stroke-miterlimit:4;stroke-opacity:1;stroke-dasharray:none" />
      <path
         d="m 300.0153,-16.177746 a 18.182745,8.0812206 0 1 1 -36.36549,0 18.182745,8.0812206 0 1 1 36.36549,0 z"
         transform="translate(222.69145,738.16825)"
         id="path3872-6"
         style="fill:url(#linearGradient4012);fill-opacity:1;fill-rule:nonzero;stroke:none" />
      <path
         d="m 308.09652,-23.248814 a 16.162441,9.0913725 0 1 1 -32.32488,0 16.162441,9.0913725 0 1 1 32.32488,0 z"
         transform="translate(222.69145,738.16825)"
         id="path3874-8"
         style="fill:url(#linearGradient4014);fill-opacity:1;fill-rule:nonzero;stroke:none" />
      <path
         d="m 322.23867,-14.662518 a 16.162441,6.5659914 0 1 1 -32.32488,0 16.162441,6.5659914 0 1 1 32.32488,0 z"
         transform="translate(222.69145,738.16825)"
         id="path3876-5"
         style="fill:url(#linearGradient4016);fill-opacity:1;fill-rule:nonzero;stroke:none" />
    </g>
  </g>
</svg>
